<?xml version="1.0" standalone="no"?>
<svg version="1.1" id="Layer_1" xmlns="http://www.w3.org/2000/svg" xmlns:xlink="http://www.w3.org/1999/xlink" x="0px" y="0px" width="595.28px" height="595.28px" viewBox="0 0 595.28 595.28" enable-background="new 0 0 595.28 595.28" xml:space="preserve">
<path id="color_x5F_2" fill="#1d4ed8" d="M241.615,488.684c0.178-0.056,0.348-0.127,0.502-0.21l-0.345,0.525L241.615,488.684z
	 M253.853,350.305c-1.454,0.984-3.857,1.036-5.435,0.934c-1.49-0.097-3.317-0.336-4.911-0.961
	c-4.338,25.028-7.055,50.368-8.296,75.735c-0.619,12.644-0.939,25.312-0.67,37.97c0.121,5.694,0.122,9.48,3.332,14.335
	c1.861,2.815,4.275,5.798,4.87,9.204l2.101-3.201c0.528-0.961,1.008-1.849,1.355-2.454c2.199-3.829,4.566-7.772,6.022-11.958
	c1.614-4.642,0.712-10.325,0.749-15.173c0.054-7.134,0.118-14.268,0.188-21.402C253.433,405.658,253.826,377.981,253.853,350.305z
	 M255.772,467.666v-3.939c-0.061,1.645-0.216,3.222-0.569,4.807L255.772,467.666z M241.058,348.803
	c0.014-0.016,0.033-0.029,0.048-0.044c-0.015-0.015-0.025-0.035-0.039-0.05C241.064,348.737,241.061,348.771,241.058,348.803z
	 M248.363,329.285c-0.404,0.17-0.873,0.257-1.275,0.159c-1.153,0.492-2.304,1.164-3.406,1.972l-3.439,3.153
	c-0.157,0.178-0.313,0.357-0.462,0.539l0.036,0.503c0.229,0.086,0.397,0.237,0.44,0.475c0.791,4.373,1.01,11.6,6.31,12.895
	c2,0.489,5.113,1.232,6.241-1.023c1.408-2.815,2.327-5.771,3.045-8.828c0.094-0.4,0.548-0.71,1.072-0.884
	C254.705,334.709,251.774,331.767,248.363,329.285z"></path>
<path id="color_x5F_1" d="M231.097,282.464c-6.997-1.685-4.021-8.429-2.575-13.322c0.305-1.031,3.23-1.438,2.905-0.336
	c-1.141,3.86-4.472,10.591,1.425,12.011C234.524,281.22,232.079,282.7,231.097,282.464z M240.525,284.696
	c-0.295-0.553,2.24-1.507,2.828-0.861c3.113-1.152,6.279-2.138,9.532-2.823c0.193-0.041,1.182-0.154,1.204,0.24
	c0.217,3.754-1.356,6.797-5.136,7.766c-3.346,0.858-6.198-0.822-7.951-3.523c-0.33-0.092-0.495-0.271-0.304-0.498
	C240.641,284.897,240.58,284.799,240.525,284.696z M243.973,284.835c1.066,1.604,2.759,3.251,4.727,3.068
	c2.09-0.195,2.51-3.539,2.506-5.346C248.747,283.149,246.339,283.941,243.973,284.835z M248.173,268.336
	c-0.004-1.51,0.107-2.892,0.571-4.341c0.237-0.742-2.611-0.356-2.872,0.458c-0.496,1.549-0.602,3.046-0.597,4.66
	C245.277,269.744,248.176,269.274,248.173,268.336z M227.507,263.795c0.219-0.506,0.262-1.13,0.357-1.667
	c0.064-0.367,0.126-0.735,0.19-1.103c0.028-0.16,0.224-0.77,0.017-0.372c-0.003,0-0.005,0.001-0.008,0.002
	c0.076-0.125,0.118-0.259,0.11-0.403c-0.004-0.079-0.065-0.138-0.108-0.205c-0.462-0.729-2.38-0.071-2.695,0.534
	c-0.251,0.483-0.268,1.112-0.359,1.641c-0.107,0.62-0.15,1.348-0.403,1.931c-0.271,0.626,0.97,0.669,1.254,0.634
	C226.505,264.707,227.235,264.423,227.507,263.795z M226.118,254.364c1.333,0,2.667,0,4,0c0.69,0,1.536-0.185,1.896-0.854
	c0.32-0.595-0.274-1.093-0.85-1.093c-1.333,0-2.667,0-4,0c-0.69,0-1.536,0.185-1.896,0.854
	C224.948,253.866,225.542,254.364,226.118,254.364z M247.051,257.149c1.449,0.13,2.323,0.923,3.245,1.975
	c0.86,0.981,3.614-0.176,2.654-1.271c-1.352-1.542-2.783-2.602-4.89-2.79c-0.692-0.062-1.563,0.212-1.888,0.883
	C245.861,256.587,246.444,257.095,247.051,257.149z M107.388,188.58c-9.802-11.251-6.582-25.142,5.472-33.046
	c0.29-0.19,0.711-0.276,1.12-0.277c10.962-4.325,25.278-4.427,32.643,6.351c6.649,9.73,4.103,22.17-5.271,29.159
	C130.867,198.584,116.465,198.999,107.388,188.58z M109.404,186.648c8.416,9.66,21.955,11.126,31.518,1.955
	c7.039-6.751,9.107-17.673,3.018-25.831c-7.227-9.681-19.309-10.262-29.783-5.8c-0.1,0.043-0.202,0.073-0.305,0.099
	C103.884,164.167,100.846,176.825,109.404,186.648z M417.388,278.58c-9.803-11.251-6.581-25.142,5.472-33.046
	c0.29-0.19,0.711-0.275,1.119-0.277c10.962-4.325,25.278-4.427,32.643,6.351c6.649,9.73,4.103,22.17-5.27,29.159
	C440.866,288.584,426.464,288.999,417.388,278.58z M419.403,276.648c8.416,9.66,21.956,11.126,31.518,1.955
	c7.039-6.751,9.107-17.673,3.019-25.831c-7.227-9.681-19.31-10.262-29.784-5.8c-0.1,0.042-0.202,0.073-0.304,0.099
	C413.884,254.167,410.846,266.825,419.403,276.648z M61.085,126.072c-3.889-4.642-2.383-10.007,2.414-13.229
	c0.21-0.141,0.49-0.225,0.783-0.263c4.516-1.709,10.679-1.938,13.612,2.657c2.563,4.014,1.453,8.877-2.374,11.672
	C71.162,130.091,64.835,130.548,61.085,126.072z M74.357,125.333c2.24-2.391,2.876-6.162,0.854-8.93
	c-2.508-3.434-6.477-3.882-10.254-2.322C56.607,120.266,67.369,132.792,74.357,125.333z M337.085,205.072
	c-3.889-4.641-2.384-10.007,2.413-13.229c0.21-0.141,0.49-0.225,0.783-0.263c4.516-1.709,10.68-1.938,13.612,2.657
	c2.562,4.014,1.453,8.877-2.374,11.672C347.161,209.091,340.835,209.548,337.085,205.072z M350.356,204.333
	c2.239-2.391,2.876-6.162,0.854-8.93c-2.509-3.434-6.477-3.882-10.254-2.322C332.607,199.265,343.369,211.792,350.356,204.333z
	 M505.13,199.208c-3.889-4.641-2.384-10.007,2.413-13.229c0.21-0.141,0.49-0.225,0.783-0.263c4.516-1.709,10.68-1.938,13.612,2.657
	c2.562,4.014,1.453,8.877-2.374,11.672C515.206,203.227,508.88,203.684,505.13,199.208z M518.401,198.469
	c2.239-2.391,2.876-6.162,0.854-8.93c-2.509-3.434-6.477-3.882-10.254-2.322C500.652,193.401,511.414,205.928,518.401,198.469z
	 M177.714,265.992c0.188-0.126,0.432-0.208,0.691-0.251c3.402-1.284,8.131-1.516,10.347,1.955c1.938,3.037,1.04,6.64-1.835,8.739
	c-3.299,2.409-8.217,2.825-11.067-0.577C172.937,272.381,174.145,268.39,177.714,265.992z M179.232,267.186
	c-5.513,4.192,1.61,12.868,6.267,7.898c1.553-1.658,1.969-4.309,0.572-6.222C184.385,266.554,181.796,266.146,179.232,267.186z
	 M464.753,395.695c1.938,3.037,1.04,6.64-1.836,8.739c-3.3,2.409-8.216,2.825-11.067-0.577c-2.913-3.476-1.705-7.468,1.863-9.866
	c0.188-0.126,0.434-0.208,0.693-0.251C457.808,392.456,462.538,392.225,464.753,395.695z M462.07,396.862
	c-1.686-2.308-4.275-2.716-6.84-1.675c-5.511,4.191,1.611,12.867,6.268,7.897C463.052,401.426,463.468,398.775,462.07,396.862z
	 M234.61,151.15c-5.189-6.194-3.287-13.392,3.145-17.713c0.239-0.161,0.569-0.25,0.907-0.278c6-2.276,14.075-2.5,17.964,3.592
	c3.394,5.315,2.003,11.861-3.091,15.581C247.767,156.544,239.56,157.058,234.61,151.15z M252.712,150.457
	c3.155-3.368,4.085-8.633,1.231-12.54c-3.601-4.93-9.411-5.427-14.794-3.186c-0.007,0.003-0.015,0.005-0.022,0.008
	C227.007,143.587,242.628,161.221,252.712,150.457z M542.363,376.425c-1.243,1.34-2.578,2.573-3.982,3.699
	c0.03,0.689-0.896,1.239-1.713,1.289c-12.133,8.629-28.758,9.437-40.073-1.437c-0.055-0.053-0.11-0.104-0.165-0.157
	c-0.262-0.256-0.521-0.519-0.777-0.788c-0.359,0.369-0.703,0.724-0.998,1.059c-2.566,2.917-5.175,5.796-7.817,8.644
	c-2.594,2.793-5.183,5.607-7.917,8.264c-0.987,0.96-2.047,2.248-3.45,2.581c-0.264,0.063-0.483,0.077-0.68,0.072
	c0.96,4.753-0.501,9.811-4.605,13.254c-0.243,0.204-0.502,0.391-0.754,0.585c0.051,0.737-1.003,1.316-1.858,1.302
	c-6.68,4.179-15.434,4.938-21.447-0.903c-0.088-0.085-0.172-0.18-0.259-0.268c-0.251-0.255-0.509-0.495-0.749-0.775
	c-6.689-7.772-4.612-16.833,3.577-22.377c0.169-0.115,0.568-0.224,1.001-0.296c7.053-2.782,16.45-3.611,21.871,2.82
	c1.421,1.687,2.404,3.604,2.967,5.601c0.166-0.085,0.361-0.164,0.612-0.223c-1.204,0.285,0.565-0.775,1.109-1.312
	c1.009-0.997,2.004-2.007,2.985-3.031c2.319-2.417,4.607-4.864,6.868-7.336c2.146-2.345,4.283-4.697,6.367-7.097
	c0.513-0.59,1.245-1.274,1.885-1.995c-5.051-5.945-7.976-13.201-7.2-21.105c0.736-7.499,5.479-13.469,11.239-17.919
	c-0.976-1.303-3.01-2.638-3.967-3.496c-2.999-2.688-6.04-5.331-9.104-7.945c-3.068-2.619-6.147-5.227-9.277-7.771
	c-0.924-0.751-2.128-2.035-3.345-2.912c-0.163,0.083-0.337,0.147-0.517,0.191c-13.831,10.793-32.199,16.12-49.252,12.237
	c-1.111,1.518-2.275,2.991-3.386,4.425c3.298,2.15,4.295,5.097,3.847,8.21c3.535,0.75,4.885,3.148,4.786,6.042
	c5.011,3.25,3.491,8.767-0.237,13.103c-1.473,1.713-3.229,3.686-5.177,5.11c-0.002,0.023,0.002,0.044-0.002,0.069
	c-1.087,6.535-4.364,12.092-9.148,16.507c0.146,0.1,0.21,0.248,0.139,0.455c-3.453,10.08-5.829,20.432-8.342,30.772
	c-3.104,12.778-7.913,24.759-11.718,37.284c-2.688,8.847-5.056,18.522-10.46,26.195c-8.267,11.734-23.915,14.718-35.564,5.948
	c-5.922-4.459-10.505-10.475-14.27-17.083c-2.552,5.952-5.103,11.905-7.653,17.857c-0.382,0.891-3.238,1.218-2.889,0.4
	c3-7,6-14,9-21c0.006-0.013,0.016-0.024,0.022-0.036c-3.667-6.993-6.53-14.481-9.123-21.426c-5.42-14.52-8.986-30.676-16.798-44.163
	c-0.628-1.083,2.191-2.005,2.686-1.15c7.544,13.023,11.059,28.451,16.246,42.482c5.434,14.694,11.789,32.672,24.808,42.473
	c6.607,4.975,16.326,7.381,23.789,2.591c8.426-5.408,12.04-15.785,14.902-24.891c3.438-10.935,7.806-21.634,10.891-32.655
	c3.96-14.142,6.644-28.61,11.341-42.542c-0.095-0.024-0.186-0.052-0.268-0.089c-0.336,0.101-0.67,0.134-0.922,0.057
	c-9.47-2.897-18.647-6.52-27.408-11.124c-0.066,0.031-0.134,0.06-0.204,0.085c-14.266,14.591-21.82,35.343-29.076,53.979
	c-0.34,0.873-3.195,1.221-2.883,0.418c3.493-8.971,7.069-18.374,11.396-27.369c-0.19-0.096-0.337-0.242-0.403-0.452
	c-3.152-10.056-5.108-20.382-7.995-30.5c-2.748-9.634-6.3-20.83-13.435-28.148c-13.771-14.127-35.778-17.816-54.65-18.79
	c-0.01,0-0.017-0.002-0.026-0.003c-0.125,0.045-0.255,0.085-0.386,0.119c-8.393,4.721-16.801,11.554-22.188,19.545
	c-0.455,0.675-2.119,0.906-2.691,0.512c-0.311,0.005-0.552-0.061-0.628-0.235c-0.167-0.383-0.363-0.742-0.545-1.113
	c-0.49,2.069-1.12,4.434-2.089,6.417c0.313,0.046,0.531,0.178,0.531,0.42c-0.009,29.582-0.453,59.162-0.736,88.741
	c-0.072,7.594-0.141,15.188-0.188,22.781c-0.011,1.644-0.006,3.158-0.06,4.619c-0.061,1.645-0.216,3.222-0.569,4.807
	c-0.298,1.341-0.728,2.691-1.401,4.109c-1.921,4.047-4.083,7.98-6.405,11.812c-1.132,1.869-2.309,4.681-4.164,5.977
	c-0.46,0.322-1.798,0.704-2.243,0.143c-0.01-0.012-0.019-0.024-0.029-0.036c-0.319-0.403,0.074-0.827,0.656-1.103
	c0.787-0.75,2.114-3.093,3.225-5.115c0.528-0.961,1.008-1.849,1.355-2.454c2.199-3.829,4.566-7.772,6.022-11.958
	c1.614-4.642,0.712-10.325,0.749-15.173c0.054-7.134,0.118-14.268,0.188-21.402c0.276-27.675,0.668-55.352,0.695-83.028
	c-1.454,0.984-3.857,1.036-5.435,0.934c-1.49-0.097-3.317-0.336-4.911-0.961c-4.338,25.028-7.055,50.368-8.296,75.735
	c-0.619,12.644-0.939,25.312-0.67,37.97c0.121,5.694,0.122,9.48,3.332,14.335c1.861,2.815,4.275,5.798,4.87,9.204
	c0.003,0.021,0.011,0.042,0.015,0.063c0.06,0.354-0.228,0.665-0.64,0.888c-0.154,0.083-0.324,0.154-0.502,0.21
	c-0.773,0.244-1.667,0.207-1.756-0.322c-0.782-4.665-4.666-8.16-6.727-12.282c-2.163-4.328-1.489-9.717-1.541-14.446
	c-0.127-11.754,0.116-23.513,0.722-35.252c1.337-25.877,4.053-51.698,8.546-77.223c0.022-0.128,0.094-0.247,0.197-0.355
	c0.014-0.016,0.033-0.029,0.048-0.044c-0.015-0.015-0.025-0.035-0.039-0.05c-0.214-0.231-0.417-0.474-0.583-0.749
	c-1.749-2.9-2.303-6.295-2.866-9.609c-0.342,0.664-0.631,1.333-0.846,1.997c-0.382,1.183-3.34,1.527-2.928,0.251
	c0.015-0.045,0.035-0.089,0.049-0.134c-3.341-4.665-4.376-10.302-4.099-15.94c-0.07-0.01-0.134-0.024-0.188-0.042
	c0.288,0.222-1.894,1.125-2.498,1.02c-21.142-3.703-40.523,2.872-58.657,13.424c-14.431,8.397-28.017,18.369-43.324,25.183
	c-0.178,0.079-2.54,0.641-2.244,0.138c1.305-2.224,0.25-7.842,0.219-10.278c-0.089-6.873-0.276-13.744-0.51-20.612
	c-0.231-6.793-0.487-13.587-0.869-20.373c-0.137-2.436,0.478-7.436-0.864-9.622c-0.047-0.077,0.104-0.212,0.356-0.357
	c-7.949,0-15.897,0-23.847,0c-4.611,15.493-6.35,32.278-7.234,48.323c-0.512,9.296-0.709,18.688,0.202,27.967
	c0.67,6.823,1.508,14.782,5.199,20.759c8.361,13.538,28.688,14.153,42.717,13.06c16.258-1.267,34.164-5.049,47.931-14.239
	c0.411-0.274,2.003-0.478,2.441-0.273c0.252-7.532,0.955-15.042,2.221-22.498c0.207-1.216,3.16-1.637,2.926-0.259
	c-6.031,35.505,0.649,72.162,8.986,106.741c0.307,1.271-2.594,2.035-2.897,0.776c-6.595-27.355-12.147-56.046-11.248-84.426
	c-0.046,0.042-0.104,0.088-0.179,0.138c-13.476,8.996-30.732,13.195-46.649,14.905c-14.313,1.538-35.107,2.346-46.037-9.121
	c-5.16-5.414-6.846-13.066-7.792-20.274c-1.296-9.87-1.355-19.894-0.857-29.825c0.861-17.208,2.534-35.173,7.54-51.754
	c-0.155,0-0.311,0-0.466,0c-1.478,0-1.503-1.162-0.734-1.741c-3.219-8.131-4.402-17.395-5.681-25.947
	c-1.529-10.23-2.836-20.596-2.897-30.955c-0.005-0.826,2.056-1.186,2.632-0.978c4.11,1.488,7.327,6.115,9.668,10.604
	c-0.438-7.014-0.354-14.253,3.221-19.782c-5.09-2.62-9.887-5.961-14.151-9.883c-0.299-0.077-0.497-0.229-0.491-0.464
	c-9.086-8.537-15.664-19.727-17.324-32.149c-2.432-18.193,6.074-33.532,19.398-44.569c-0.229-0.036-0.443-0.126-0.611-0.295
	c-1.804-1.806-3.473-3.616-4.617-5.841c-0.014,0.001-0.028-0.001-0.042-0.001c-9.696,6.56-23.003,6.911-31.2-2.978
	c-8.717-10.518-5.718-22.922,5.297-30.209c0.189-0.125,0.664-0.243,1.151-0.312c9.68-3.879,22.323-4.642,29.68,4.153
	c6.368,7.613,6.434,18.748-0.772,25.929c-0.549,0.547-1.122,1.067-1.71,1.564c0.975,2.329,2.647,4.168,4.427,5.95
	c0.169,0.169,0.263,0.344,0.305,0.516c1.774-1.37,3.619-2.672,5.531-3.895c0.311-0.198,1.382-0.38,2.028-0.357
	c18.14-7.451,39.218-10.388,57.476-1.686c15.505,7.389,27.281,22.221,29.24,39.533c0.08,0.709,0.14,1.415,0.188,2.119
	c0.122-0.056,0.222-0.103,0.286-0.136c1.496-0.781,2.987-1.573,4.474-2.371c4.246-2.279,8.479-4.583,12.715-6.881
	c3.869-2.099,7.733-4.211,11.63-6.257c1.571-0.825,3.224-1.896,4.976-2.328c-3.094-5.03-4.702-10.755-4.103-16.865
	c0.863-8.79,7.225-15.486,14.284-20.087c0.223-0.145,0.838-0.281,1.407-0.338c12.846-5.111,29.048-6.082,39.189,5.003
	c9.142,9.993,9.71,25.236,0.324,35.354c-1.244,1.34-2.579,2.573-3.983,3.699c0.031,0.689-0.896,1.239-1.712,1.289
	c-12.133,8.629-28.756,9.437-40.071-1.436c-0.056-0.054-0.113-0.105-0.169-0.16c-0.546-0.532-1.084-1.083-1.604-1.671
	c-1.075-1.217-2.056-2.495-2.938-3.821c-0.243,0.151-0.523,0.276-0.809,0.335c1.264-0.259-1.433,0.832-1.931,1.092
	c-1.496,0.781-2.987,1.573-4.474,2.371c-4.246,2.279-8.479,4.583-12.715,6.881c-3.869,2.099-7.733,4.211-11.63,6.257
	c-0.987,0.519-2.007,1.134-3.062,1.63c0.591,16.904-7.989,32.195-20.786,42.717c-0.108,0.492-0.681,0.883-1.292,1.034
	c-2.727,2.128-5.628,4.045-8.664,5.719c1.471,0.627,2.772,3.129,3.669,4.314c2.591,3.425,5.127,6.892,7.667,10.355
	c2.59,3.532,5.166,7.075,7.809,10.567c0.64,0.846,1.697,2.801,2.77,3.944c6.795-2.236,15.142-2.463,20.126,3.451
	c5.016,5.952,4.772,14.749-1.382,19.912c-0.244,0.204-0.502,0.391-0.754,0.585c0.051,0.737-1.003,1.316-1.859,1.302
	c-6.68,4.178-15.433,4.938-21.446-0.902c-0.088-0.086-0.172-0.18-0.259-0.269c-0.251-0.255-0.509-0.495-0.75-0.775
	c-6.689-7.772-4.612-16.833,3.577-22.377c0.001-0.001,0.004-0.002,0.005-0.003c-0.894-1.019-1.678-2.398-2.279-3.193
	c-2.591-3.425-5.127-6.892-7.667-10.355c-2.59-3.532-5.166-7.075-7.809-10.567c-0.848-1.121-2.428-4.19-3.807-4.737c0,0,0,0,0,0
	c-3.735,1.864-7.644,3.367-11.649,4.459c0.401,9.637-5.011,26.156-5.754,29.64c-0.147,0.692-2.984,1.133-2.854,0.523
	c1.304-6.111,3.245-12.063,4.398-18.216c0.375-1.998,1.581-7.055,1.498-11.271c-2.733,0.612-5.501,1.031-8.281,1.242
	c-2.673,8.763-4.293,22.241-4.76,24.722c-0.128,0.683-2.973,1.151-2.854,0.523c0.266-1.411,0.499-2.826,0.723-4.241
	c-0.438-0.111-0.77-0.398-0.764-0.911c0.049-4.352,0.456-8.69,0.421-13.047c-0.013-1.634,0.104-4.3-0.079-6.98
	c-2.476-0.148-4.943-0.475-7.386-0.985c-0.447,3.377-0.535,6.795-0.557,7.669c-0.129,4.967,0.36,10.207-0.463,15.124
	c-0.219,1.307-3.182,1.684-2.937,0.219c0.086-0.514,0.158-1.029,0.222-1.545c-0.113-0.037-0.189-0.093-0.202-0.176
	c-1.261-8.228-3.303-16.932-6.551-24.746c-0.327-0.147-0.652-0.298-0.977-0.452c-4.403,8.438-1.666,20.552-1.574,29.421
	c0.009,0.819-2.893,1.248-2.897,0.776c-0.016-1.5-0.103-3.083-0.216-4.715c-0.381,0.016-0.69-0.061-0.784-0.285
	c-1.827-4.339-4.811-10.979-9.051-14.266c0.239,9.965,1.498,19.959,3.052,29.783c1.313,8.29,2.456,17.216,5.649,25.064
	c8.781,0,17.562,0,26.343,0c0.051-0.109,0.127-0.224,0.255-0.352c5.154-5.155,10.249-10.38,15.097-15.826
	c2.918-3.279,5.829-6.601,8.417-10.15c1.193-1.636,4.932-5.912,4.238-8.253c-2.278-7.678-32.206,12.618-35.351,16.994
	c-0.725,1.009-3.465,0.715-2.401-0.765c4.511-6.277,13.209-10.772,19.865-14.29c4.486-2.372,14.461-8.407,19.617-4.613
	c7.465,5.493-22.971,33.558-27.081,37.667c-0.197,0.198-0.501,0.328-0.833,0.4c0.018,0.408-0.278,0.86-0.783,1.091
	c1.253,2.465,0.637,7.607,0.771,10.131c0.364,6.867,0.636,13.739,0.86,20.612c0.229,7.039,0.437,14.081,0.493,21.123
	c0.015,1.87,0.651,5.58,0.117,7.897c17.381-8.241,32.669-20.299,49.859-28.933c16.713-8.394,34.908-12.493,53.514-9.233
	c0.021,0.004,0.031,0.011,0.047,0.016c-0.167-0.077-0.218-0.21-0.068-0.418c0.124-0.172,0.254-0.336,0.38-0.506
	c0.049-0.258,0.23-0.481,0.49-0.652c2.335-3.027,5.015-5.612,8.49-7.214c-0.002-0.033-0.01-0.061-0.009-0.095
	c0.007-0.209,0.017-0.427,0.029-0.65c-0.108-0.217-0.083-0.431,0.037-0.625c0.205-3.189,0.62-7.362-1.308-9.834
	c-1.983-2.542-5.157-3.396-7.992-4.652c-5.313-2.354-10.013-5.804-11.845-11.59c-4.482-14.157,1.216-29.441,1.412-43.815
	c0.002-0.145,0.043-0.276,0.105-0.398c-8.067-3.341-12.981-8.846-10.022-17.77c10.448-31.514,49.055-8.474,66.139,5.272
	c0.036-0.007,0.071-0.018,0.108-0.024c13.741-2.088,18.353,12.38,18.654,23.543c0.416,15.406-7.349,30.981-19.945,39.72
	c-0.056,0.039-0.118,0.073-0.184,0.104c0.11,5.029,1.114,9.989,1.797,14.98c0.358-0.047,0.675-0.022,0.845,0.125
	c3.402,2.941,6.5,6.163,8.588,10.15c0.195-0.063,0.393-0.099,0.581-0.089c18.437,0.951,40.657,4.413,54.542,17.769
	c15.128,14.553,17.043,38.986,22.669,58.426c4.526-8.837,9.91-17.136,16.804-24.083c0-0.006-0.002-0.011-0.002-0.017
	c-0.002-0.251-0.006-0.511-0.01-0.767c0-0.05-0.001-0.101-0.002-0.151c-0.207-15.145-2.611-38.902,18.403-40.151
	c1.093-0.065,2.396,0.057,3.709,0.362c2.554-2.405,4.771-5.208,6.987-7.976c-4.554-2.494-8.851-5.565-12.709-9.114
	c-0.299-0.077-0.497-0.229-0.49-0.464c-7.688-7.224-13.582-16.345-16.217-26.508c-2.289,0.882-5.545,1.118-7.092,1.427
	c-3.033,0.605-6.385,1.556-9.593,1.831c-0.646,5.048-2.808,9.942-6.579,14.009c-1.243,1.34-2.578,2.573-3.982,3.699
	c0.03,0.689-0.896,1.239-1.713,1.289c-12.133,8.629-28.758,9.436-40.072-1.437c-0.055-0.053-0.111-0.104-0.166-0.158
	c-0.547-0.533-1.085-1.084-1.605-1.673c-5.339-6.043-8.465-13.506-7.665-21.652c0.862-8.79,7.225-15.486,14.283-20.087
	c0.223-0.145,0.838-0.28,1.406-0.337c12.847-5.112,29.05-6.083,39.19,5.002c5.135,5.612,7.563,12.881,7.045,19.968
	c2.271-0.14,4.688-0.827,6.848-1.233c2.079-0.391,4.16-0.787,6.219-1.274c0.758-0.179,1.52-0.354,2.268-0.573
	c0.469-0.138,0.905-0.566,0.555,0.036c0.063-0.109,0.172-0.207,0.306-0.294c-0.312-1.378-0.57-2.772-0.759-4.184
	c-2.142-16.021,4.196-29.829,14.839-40.435c-1.552-0.683-3.075-1.893-4.405-2.71c-3.884-2.39-7.743-4.818-11.604-7.245
	c-4.06-2.552-8.115-5.112-12.193-7.637c-1.639-1.014-4.031-3.003-5.933-3.769c-0.191,0.056-0.387,0.086-0.576,0.091
	c-9.695,6.56-23.002,6.911-31.198-2.979c-8.718-10.518-5.718-22.922,5.297-30.209c0.188-0.125,0.663-0.243,1.149-0.311
	c9.682-3.879,22.324-4.643,29.682,4.152c6.367,7.613,6.434,18.748-0.772,25.929c-0.646,0.643-1.321,1.25-2.021,1.825
	c1.784,0.578,3.564,2.033,5.09,2.971c3.884,2.39,7.743,4.818,11.604,7.245c4.06,2.552,8.115,5.112,12.193,7.637
	c1.459,0.904,3.514,2.571,5.29,3.469c3.163-2.944,6.659-5.624,10.396-8.012c0.311-0.198,1.381-0.38,2.028-0.357
	c18.14-7.45,39.218-10.387,57.477-1.686c3.438,1.639,6.693,3.646,9.698,5.962c0.179-0.104,0.395-0.202,0.691-0.272
	c-1.204,0.285,0.565-0.775,1.109-1.312c1.009-0.997,2.004-2.007,2.985-3.031c2.319-2.417,4.607-4.864,6.868-7.336
	c2.146-2.345,4.283-4.697,6.367-7.097c0.922-1.062,2.567-2.424,3.075-3.767c0.094-0.248,0.4-0.451,0.778-0.6
	c-0.32-0.342-0.635-0.696-0.941-1.066c-8.718-10.518-5.718-22.922,5.297-30.209c0.188-0.125,0.663-0.243,1.149-0.311
	c9.682-3.879,22.324-4.643,29.682,4.152c6.367,7.613,6.434,18.748-0.772,25.929c-0.754,0.751-1.552,1.452-2.38,2.11
	c0.054,0.715-0.936,1.285-1.777,1.307c-8.808,5.958-20.59,6.786-28.819-0.525c-0.877,1.267-2.215,2.455-3.112,3.474
	c-2.566,2.917-5.175,5.796-7.817,8.644c-2.594,2.793-5.183,5.607-7.917,8.264c-0.959,0.932-1.988,2.166-3.331,2.542
	c9.944,8.1,16.937,19.689,18.406,32.674c2.027,17.91-6.371,34.306-19.526,45.57c1.339,0.775,2.661,2.187,3.696,3.027
	c3.328,2.706,6.613,5.465,9.872,8.254c3.252,2.784,6.5,5.577,9.67,8.456c0.729,0.663,1.964,1.519,2.9,2.452
	c0.278-0.19,0.556-0.382,0.837-0.565c0.223-0.145,0.838-0.28,1.406-0.337c12.847-5.112,29.048-6.083,39.189,5.002
	C551.182,351.064,551.749,366.307,542.363,376.425z M525.396,213.417c-4.685-7.538-13.317-8.372-21.134-5.156
	c-0.12,0.049-0.24,0.081-0.361,0.104c-1.483,1.031-2.831,2.228-3.922,3.675c2.802,2.634,6.217,4.645,9.984,5.333
	C515.246,218.337,520.971,216.707,525.396,213.417z M498.387,210.406c1.302-1.437,2.802-2.667,4.457-3.724
	c0.312-0.199,0.711-0.345,1.113-0.387c8.453-3.167,18.247-2.711,23.66,5.221c1.38-1.362,2.567-2.904,3.466-4.603
	c3.573-6.758,3.019-15.338-2.292-21.11c-7.108-7.725-17.391-8.055-26.669-4.125c-0.03,0.013-0.063,0.022-0.094,0.034
	c-8.456,6.112-12.143,16.555-5.857,25.854C496.835,208.548,497.579,209.5,498.387,210.406z M328.126,213.43
	c0.664,0.982,1.408,1.935,2.216,2.84c1.302-1.437,2.802-2.667,4.457-3.724c0.312-0.199,0.711-0.345,1.113-0.387
	c8.453-3.167,18.247-2.711,23.66,5.221c1.38-1.362,2.567-2.904,3.466-4.603c3.573-6.758,3.019-15.338-2.292-21.11
	c-7.108-7.725-17.391-8.055-26.669-4.125c-0.03,0.013-0.063,0.022-0.094,0.034C325.527,193.688,321.841,204.131,328.126,213.43z
	 M357.351,219.281c-4.685-7.538-13.317-8.372-21.134-5.156c-0.12,0.049-0.24,0.081-0.361,0.104
	c-1.483,1.031-2.831,2.228-3.922,3.675c2.802,2.634,6.217,4.645,9.984,5.333C347.201,224.201,352.926,222.571,357.351,219.281z
	 M349.337,308.907c-6.444-10.726-18.896-11.802-29.749-7.255c-0.146,0.062-0.296,0.097-0.442,0.12
	c-2.202,1.51-4.196,3.274-5.789,5.431c4.56,4.275,10.336,7.392,16.549,7.881C336.664,315.615,343.769,313.181,349.337,308.907z
	 M360.003,290.516c-0.107-0.104-0.076-0.242,0.042-0.391c0.662-6.524-1.13-13.212-5.611-18.466
	c-9.541-11.187-24.497-11.91-37.396-6.372c-0.107,0.046-0.263,0.084-0.438,0.115c-12.203,8.546-17.073,23.515-7.9,36.47
	c0.907,1.282,1.918,2.523,3.017,3.698c1.86-2.186,4.066-4.018,6.51-5.577c0.335-0.214,0.772-0.363,1.203-0.388
	c11.45-4.411,25.022-3.668,32.156,7.389c1.723-1.612,3.248-3.406,4.484-5.36C358.226,298.225,359.549,294.404,360.003,290.516z
	 M190.415,285.997c-3.302-5.133-9.2-5.77-14.65-3.528c-0.1,0.041-0.201,0.071-0.302,0.094c-0.944,0.668-1.803,1.438-2.515,2.354
	c1.992,1.875,4.409,3.307,7.097,3.762C183.549,289.271,187.387,288.15,190.415,285.997z M176.433,262.311
	c0.015,0.006,0.03,0.017,0.045,0.022c1.072,0.425-1.578,1.582-2.339,1.28c-0.112-0.044-0.22-0.119-0.33-0.184
	c-5.501,4.337-8.084,11.345-3.941,17.768c0.463,0.718,0.984,1.421,1.55,2.095c0.767-0.781,1.614-1.477,2.533-2.094
	c0.102-0.068,0.197-0.143,0.3-0.209c0.02-0.013,0.037-0.027,0.057-0.04c0.266-0.17,0.599-0.303,0.94-0.366
	c6.141-2.292,13.319-2.065,17.381,3.506c1.074-1.136,1.944-2.428,2.517-3.827c1.933-4.723,1.353-10.459-2.304-14.261
	C188.311,261.288,182.346,260.507,176.433,262.311z M262.443,170.715c-6.442-10.726-18.895-11.802-29.748-7.255
	c-0.147,0.062-0.296,0.097-0.443,0.12c-2.202,1.51-4.196,3.274-5.79,5.431c4.56,4.275,10.336,7.392,16.549,7.881
	C249.771,177.423,256.875,174.988,262.443,170.715z M221.805,163.68c0.908,1.282,1.918,2.523,3.016,3.698
	c1.861-2.186,4.067-4.018,6.511-5.577c0.335-0.214,0.772-0.363,1.203-0.388c11.45-4.411,25.022-3.668,32.155,7.39
	c1.722-1.612,3.248-3.406,4.484-5.361c5.845-9.239,5.61-21.481-1.634-29.975c-9.542-11.187-24.498-11.91-37.397-6.372
	c-0.107,0.046-0.263,0.084-0.438,0.115C217.502,135.756,212.633,150.724,221.805,163.68z M52.126,134.43
	c0.664,0.982,1.408,1.935,2.216,2.84c1.301-1.437,2.801-2.667,4.457-3.723c0.312-0.199,0.711-0.345,1.112-0.387
	c8.277-3.101,17.845-2.744,23.323,4.716c0.271-0.037,0.545-0.024,0.788,0.048c1.187-1.249,2.217-2.634,3.016-4.146
	c3.573-6.758,3.019-15.338-2.292-21.11c-7.108-7.726-17.39-8.055-26.669-4.125c-0.03,0.013-0.063,0.022-0.094,0.034
	C49.527,114.688,45.842,125.131,52.126,134.43z M81.351,140.281c-4.686-7.538-13.317-8.372-21.135-5.156
	c-0.12,0.049-0.24,0.08-0.359,0.103c-1.484,1.03-2.832,2.228-3.923,3.676c2.802,2.634,6.217,4.645,9.984,5.333
	C71.202,145.201,76.926,143.571,81.351,140.281z M110.937,238.381c-1.284-0.35-2.56-0.748-3.824-1.207
	c1.298,3.435,2.384,7.001,3.284,10.607c-0.012-2.829,0.042-5.652,0.405-8.44C110.844,239.029,110.889,238.707,110.937,238.381z
	 M121.034,238.494c-0.333-2.792-1.09-5.381-2.787-6.566c-2.268-1.584-3.505,1.574-4.183,5.396
	C116.396,237.888,118.721,238.268,121.034,238.494z M125.872,240.124c-0.643,0.018-1.286,0.023-1.929,0.019
	c0.05,0.726,0.085,1.391,0.114,1.936c0.076,1.398,0.101,2.792,0.1,4.186c0.221-0.946,0.459-1.89,0.724-2.829
	C125.178,242.381,125.499,241.253,125.872,240.124z M136.711,237.531c-0.217-2.428-0.981-4.408-2.77-5.071
	c-1.934-0.716-3.609,2.035-5.018,6.197C131.549,238.494,134.146,238.104,136.711,237.531z M87.223,221.686
	c3.706-4.75,8.28-8.621,13.381-11.875c0.352-0.225,0.85-0.293,1.304-0.249c21.471-8.726,47.914-7.058,60.849,14.407
	c11.647-10.157,19.475-24.364,18.652-40.247c-0.573-0.041-0.458-0.447-0.045-0.825c-0.005-0.063-0.006-0.127-0.011-0.19
	c-1.176-15.726-9.868-30.379-23.313-38.735c-18.878-11.733-41.6-9.822-61.327-1.203c-0.189,0.083-0.517,0.143-0.865,0.174
	c-12.679,8.546-23.391,21.086-24.794,36.877c-1.1,12.374,2.763,24.78,10.108,34.756C82.998,217.071,85.027,219.455,87.223,221.686z
	 M101.603,232.552c0.13-0.156,0.257-0.313,0.395-0.466c0.346-0.382,2.438-1.176,2.76-0.5c0.493,1.032,0.959,2.086,1.405,3.155
	c1.456,0.613,2.94,1.162,4.449,1.635c0.216,0.068,0.432,0.118,0.647,0.183c0.809-3.897,2.556-7.761,7.32-7.153
	c3.744,0.478,4.844,5.364,5.243,9.286c0.848,0.035,1.695,0.056,2.539,0.048c1.437-3.799,3.662-7.283,8.025-7.672
	c3.206-0.286,4.638,2.101,5.018,5.787c6.208-1.737,12.194-4.623,17.813-8.552c1.115-0.779,2.202-1.597,3.267-2.443
	c-12.297-21.211-37.813-23.131-58.696-14.122c-0.25,0.108-0.505,0.151-0.748,0.15c-4.657,3.143-8.843,6.856-12.139,11.441
	C92.717,226.934,96.991,230.073,101.603,232.552z M223.73,212.655c2.096-0.363,4.492-0.592,7.246-0.777
	C228.49,211.708,226.026,211.9,223.73,212.655z M241.834,314.104c2.92,3.548,4.84,8.378,6.795,12.635
	c8.113-5.148,16.223-10.304,24.396-15.356c-0.833-6.51-2.305-12.939-1.832-19.541l-0.087-0.175l0.663-0.58
	c-0.936,0.033-1.797-0.415-0.699-1.23c3.804-2.827,7.396-8.063,4.682-12.851c-0.831-1.465-2.393-2.99-4.193-3.02
	c-2.256-0.037-3.791,1.975-4.897,3.697c-0.526,0.819-3.45,1.074-2.705-0.086c0.352-0.547,0.767-1.081,1.231-1.588
	c-2.777-8.676-4.572-18.677-1.537-27.517c-8.785,0.61-28.248,0.952-41.568-3.443c-0.202,7.549-1.668,14.998-2.397,22.503
	c-0.69,7.116-1.803,16.396,2.281,22.775c4.212,6.58,11.229,6.905,16.897,11.33C242.421,304.436,242.043,309.908,241.834,314.104z
	 M235.337,337.29c2.344-4.055,6.338-7.622,10.541-9.46c-1.72-3.715-3.384-7.901-5.765-11.263c-0.112,0.004-0.222,0-0.328-0.015
	c-2.896,1.479-5.092,3.913-7.041,6.522c0.02,0.078,0.03,0.163,0.023,0.258C232.411,328.166,233.028,333.058,235.337,337.29z
	 M255.853,339.129c0.094-0.4,0.548-0.71,1.072-0.884c-2.22-3.536-5.151-6.478-8.562-8.96c-0.404,0.17-0.873,0.257-1.275,0.159
	c-1.153,0.492-2.304,1.164-3.406,1.972c-1.239,0.909-2.409,1.983-3.439,3.153c-0.157,0.178-0.313,0.357-0.462,0.539
	c-0.115,0.139-0.225,0.28-0.335,0.421c0.136,0.011,0.259,0.04,0.371,0.082c0.229,0.086,0.397,0.237,0.44,0.475
	c0.791,4.373,1.01,11.6,6.31,12.895c2,0.489,5.113,1.232,6.241-1.023C254.215,345.142,255.134,342.186,255.853,339.129z
	 M282.395,320.959c-1.676-3.216-4.024-5.907-6.659-8.362c-0.416,0.336-1.114,0.547-1.677,0.551
	c-7.868,4.873-15.683,9.835-23.497,14.793c4.295,3.026,7.899,6.73,10.333,11.385C266.483,331.882,274.384,325.566,282.395,320.959z
	 M397.223,311.686c3.707-4.75,8.28-8.62,13.381-11.874c0.352-0.224,0.85-0.293,1.303-0.249c21.472-8.725,47.914-7.059,60.849,14.407
	c11.896-10.374,19.816-24.969,18.598-41.262c-1.176-15.726-9.868-30.379-23.313-38.735c-18.878-11.733-41.6-9.822-61.326-1.203
	c-0.189,0.083-0.518,0.143-0.865,0.174c-3.286,2.215-6.439,4.698-9.333,7.437c0.601,0.319-0.351,0.919-1.216,1.183
	c-7.653,7.636-13.258,17.141-14.246,28.258c-1.1,12.374,2.764,24.78,10.108,34.756C392.998,307.07,395.027,309.455,397.223,311.686z
	 M420.884,328.367c-1.865-0.51-3.713-1.128-5.532-1.87c-1.608-0.656-3.195-1.389-4.757-2.185c-2.137,2.698-4.315,5.353-6.903,7.619
	c2.871,1.062,5.359,3.083,5.24,6.182c-0.242,6.327-8.993,8.073-13.787,8.794c-1.985,0.298-1.165-1.643,0.326-1.867
	c3.587-0.539,14.585-3.7,9.381-9.322c-1.145-1.237-2.529-2.008-4.019-2.415c-0.616,0.062-1.087,0.022-0.837-0.187
	c-3.308-0.59-7.003,0.491-9.758,2.404c-10.526,7.309-7.822,23.448-7.502,34.822c0.642-0.032,1.16,0.111,0.93,0.526
	c8.668,4.613,17.75,8.241,27.135,11.134c4.51-3.895,7.571-8.933,8.801-14.743c-1.521,0.018-2.173-1.6-3.402-2.419
	c-1.412-0.941,1.085-2.489,2.217-1.734c1.029,0.687,1.129,2.072,2.193,1.244c1.772-1.377,3.482-2.875,4.891-4.634
	c2.236-2.795,4.186-6.441,2.112-9.079c-2.407,7.461-11.756,15.492-17.665,7.848c-0.516-0.667,2.254-1.629,2.721-1.024
	c1.652,2.137,3.947,3.401,6.394,1.656c2.04-1.456,3.715-3.495,4.814-5.747c0.689-1.411,1.192-3.011,1.343-4.541
	c-0.56-0.43-0.406-1.019,0.034-1.448c-0.115-1.672-0.791-3.131-2.288-3.993c-2.008,6.414-9.252,12.987-14.441,14.392
	c-0.507,0.137-1.436,0.206-1.665-0.419c-2.821-7.685,1.297-14.445,7.531-18.889c0.986-0.703,3.439-0.141,1.836,1.002
	c-5.442,3.879-8.683,9.679-6.761,16.191c4.408-1.98,9.735-7.744,10.858-13.061c-0.649-0.086-0.397-0.396,0.122-0.689
	c0.354-2.484-0.28-4.827-2.436-6.587c-0.092,0.125-0.187,0.251-0.277,0.375c-0.492,0.674-2.991,0.732-2.85,0.538
	C416.799,333.621,418.979,331.07,420.884,328.367z M423.934,323.21c1.103-2.395,2.212-5.102,1.905-7.805
	c-0.221-1.94-0.11-4.958-3.886-2.682c-0.96,0.542-1.862,1.163-2.708,1.864c-2.792,2.393-5.103,5.237-7.375,8.112
	c2.799,1.485,5.72,2.728,8.741,3.677c0.452,0.142,0.903,0.253,1.355,0.382C422.699,325.614,423.369,324.438,423.934,323.21z
	 M470.482,315.859c-12.297-21.212-37.813-23.13-58.697-14.122c-0.25,0.108-0.504,0.151-0.746,0.15
	c-4.657,3.143-8.843,6.856-12.139,11.442c3.442,3.251,7.256,6.125,11.354,8.477c4.407-5.404,9.09-10.323,16.693-11.37
	c0.172-0.024,0.719-0.093,0.81,0.149c2.286,6.116-0.226,11.662-3.711,16.735c15.218,3.681,30.165,0.076,43.17-9.019
	C468.33,317.522,469.418,316.705,470.482,315.859z M466.414,413.997c-3.301-5.132-9.198-5.77-14.648-3.528
	c-0.101,0.041-0.201,0.071-0.302,0.094c-0.944,0.668-1.804,1.439-2.516,2.354c1.991,1.875,4.409,3.307,7.097,3.762
	C459.549,417.271,463.387,416.15,466.414,413.997z M468.842,394.001c-5.079-5.281-11.955-5.629-18.544-2.93
	c-5.828,4.301-8.692,11.519-4.431,18.126c0.463,0.718,0.983,1.421,1.551,2.095c0.768-0.781,1.614-1.478,2.534-2.095
	c0.101-0.068,0.196-0.143,0.299-0.209c0.021-0.013,0.038-0.027,0.058-0.04c0.266-0.17,0.599-0.303,0.939-0.366
	c6.142-2.292,13.318-2.064,17.381,3.506c1.074-1.135,1.945-2.428,2.518-3.827C473.079,403.539,472.498,397.803,468.842,394.001z
	 M535.442,380.715c-6.442-10.727-18.896-11.801-29.747-7.255c-0.147,0.062-0.296,0.097-0.443,0.12
	c-2.202,1.51-4.196,3.274-5.789,5.431c4.559,4.275,10.336,7.392,16.549,7.881C522.771,387.423,529.875,384.988,535.442,380.715z
	 M540.541,343.467c-9.542-11.187-24.497-11.91-37.396-6.372c-0.107,0.046-0.263,0.084-0.438,0.115
	c-0.406,0.285-0.806,0.577-1.196,0.875c0.099,0.166,0.188,0.333,0.247,0.5c0.206,0.587-1.294,1.204-2.224,1.139
	c-9.805,8.768-13.058,22.191-4.729,33.955c0.4,0.565,0.827,1.118,1.266,1.666c0.905-0.475,2.593-0.559,2.361,0.054
	c-0.206,0.544-0.55,1.078-0.95,1.599c0.114,0.126,0.223,0.255,0.339,0.379c1.861-2.186,4.067-4.018,6.512-5.576
	c0.336-0.214,0.771-0.363,1.203-0.388c11.449-4.41,25.022-3.668,32.155,7.39c1.722-1.612,3.247-3.406,4.483-5.361
	C548.02,364.203,547.785,351.96,540.541,343.467z M529.626,346.751c3.394,5.315,2.005,11.861-3.09,15.581
	c-5.769,4.212-13.976,4.725-18.926-1.182c-5.189-6.194-3.287-13.392,3.146-17.713c0.239-0.161,0.568-0.25,0.905-0.278
	C517.662,340.883,525.737,340.658,529.626,346.751z M526.944,347.917c-3.602-4.93-9.412-5.427-14.795-3.186
	c-0.007,0.003-0.014,0.004-0.021,0.007c-12.123,8.848,3.5,26.483,13.584,15.719C528.868,357.089,529.798,351.824,526.944,347.917z
	 M343.52,274.943c3.394,5.316,2.004,11.861-3.091,15.581c-5.769,4.212-13.976,4.726-18.926-1.182
	c-5.189-6.194-3.287-13.392,3.146-17.713c0.24-0.161,0.57-0.25,0.908-0.278C331.558,269.075,339.632,268.852,343.52,274.943z
	 M340.838,276.109c-3.601-4.931-9.411-5.427-14.794-3.186c-0.008,0.003-0.017,0.005-0.024,0.008
	c-12.119,8.848,3.501,26.481,13.586,15.718C342.761,285.282,343.691,280.017,340.838,276.109z" fill="#000000"></path>
</svg>