<?xml version="1.0" standalone="no"?>
<svg version="1.1" id="Layer_1" xmlns="http://www.w3.org/2000/svg" xmlns:xlink="http://www.w3.org/1999/xlink" x="0px" y="0px" width="595.279px" height="595.281px" viewBox="0 0 595.279 595.281" enable-background="new 0 0 595.279 595.281" xml:space="preserve">
<path id="color_x5F_2" fill="#1d4ed8" d="M403.541,413.941l-0.038,0.201c0,0-0.07-0.192-0.228-0.509
	C403.365,413.737,403.453,413.839,403.541,413.941z M420.958,350.387c-1.986,2.75-3.808,5.707-6.229,8.397
	c-0.933,1.037-3.692,0.427-2.451-0.951c0.558-0.619,1.071-1.266,1.568-1.922l0.038-0.271c-3.229,0.651-6.032,2.682-8.457,5.413
	c0.344,0.196-0.162,0.619-0.803,0.943c-0.751,0.924-1.464,1.909-2.138,2.938c-1.032,1.735-2.134,3.691-3.238,5.718
	c-1.917,3.871-3.407,7.763-4.528,10.705c-3.398,8.919-5.979,18.121-8.089,27.425c2.707-1.469,5.646-2.396,8.108-2.538
	c3.525-0.2,5.926,1.074,7.946,2.925c4.821-18.052,10.211-36.592,20.479-52.349c0.089-0.137,0.269-0.26,0.491-0.362
	c-0.883-2.047-1.763-4.094-2.626-6.147L420.958,350.387z M409.985,355.985c0.971-0.484,1.986-0.886,3.054-1.183
	C412.339,354.886,411.285,355.172,409.985,355.985z M501.427,360.211c-3.617,0.922-6.901,2.69-9.881,4.991
	C495.155,362.901,498.619,361.275,501.427,360.211z M460.798,417.268c0.057-0.003,0.112-0.007,0.17-0.01l-0.021-0.321
	C460.896,417.047,460.849,417.157,460.798,417.268z M459.314,419.286c-0.377,0.063-0.755,0.138-1.14,0.236
	c0.504,0.048,0.826,0.037,0.826,0.037L459.314,419.286z M505.184,350.883c-3.99-0.854-8.643-0.214-12.674-1.23
	c-0.521,0.097-1.043,0.052-1.343-0.233c-0.138-0.133-0.281-0.233-0.425-0.348c-0.203-0.084-0.406-0.167-0.604-0.264
	c-0.06-0.028-0.046-0.084,0.014-0.152c-7.956-4.803-21.147,16.109-24.453,21.014c-9.354,13.884-14.858,29.861-19.629,45.804
	c1.88-0.227,3.752-0.144,5.702,0.354c1.773,0.452,3.248,1.307,4.62,2.31c0.516-0.172,1.024-0.317,1.528-0.438
	c6.156-13.546,11.377-27.705,19.911-40.006c7.363-10.609,17.54-20.068,31.266-19.588c0.911,0.032,0.907,0.351,0.558,0.675
	c0.504-0.065,0.981,0.042,1.179,0.412c0.93,1.743,1.768,3.508,2.525,5.292C513.861,358.361,512.382,352.422,505.184,350.883z
	 M399.288,480.434c1.628-8.709,2.482-17.53,3.852-26.279c-5.018,1.482-10.191,2.862-15.429,3.094
	c-0.573,0.024-1.128,0.018-1.685,0.015l-1.063,0.229c-0.001,0.039-0.002,0.078-0.017,0.123c-1.694,5.161-5.306,9.504-6,15
	c-0.117,0.929-3.028,1.478-2.891,0.39c0.235-1.87,0.813-3.604,1.53-5.28c-2.702,1.26-6.133,1.914-9.615,1.913
	c-1.73,0.271-3.462,0.428-4.971,0.339c-2.696-0.159-4.519-1.45-5.693-2.76c-1.227-0.669-2.316-1.464-3.173-2.422
	c-0.14-0.155,0.09-0.38,0.463-0.585c-0.155-0.019-0.33-0.037-0.521-0.059c-6.624,0.339-13.479-0.581-19.723-1.309
	c-7.004-0.815-13.5-2.756-20.155-5.053c-2.628-0.905-5.306-1.886-8.028-2.662c-2.786-0.461-6.313-1.04-8.771-1.443
	c-0.571-0.007-1.143,0-1.716,0.036c-0.492,0.031-1.011,0.076-1.542,0.128c-0.032,0.089-0.065,0.184-0.096,0.284
	c4.644,7.996-2.724,10.678-10.016,12.509c-6.443,1.618-12.8,4.34-19.315,5.993l-3.244,1.176c0,0-0.767-0.042-1.926-0.144
	c-1.889,0.269-3.796,0.403-5.727,0.353c-0.539,0.337-1.3,0.616-1.71,0.56c-6.056-0.834-9.649-9.543-11.879-14.329
	c-2.952-6.335-4.721-13.423-7.761-19.697c0.058,11.596,0.063,23.278-3.03,34.535c-0.229,0.831-3.099,1.26-2.875,0.446
	c2.438-8.872,2.934-18.007,3.007-27.155l-3.903,32.932h176.789c0.199-0.771,0.39-1.542,0.558-2.324
	c1.105-5.188,1.494-10.5,1.74-15.831c-0.755,5.691-1.482,11.385-2.539,17.03C401.985,481.42,399.028,481.822,399.288,480.434z
	 M253.184,472.833c-0.161-0.03-0.318-0.063-0.478-0.097c0.135,0.048,0.273,0.079,0.41,0.117
	C253.141,472.848,253.162,472.84,253.184,472.833z M494.791,463.604c-0.714,0.248-1.443,0.443-2.186,0.581
	c-1.971,4.359-5.924,7.628-10.676,8.814c-0.844,0.484-1.429,0.811-1.429,0.811v-0.231c-0.653,0.133-1.31,0.057-1.448-0.381
	c-0.283-0.884-0.604-1.761-0.927-2.637c-7.183,3.881-16.847,2.602-24.512,1.539c-8.634-1.196-15.188-5.087-21.507-10.173
	c-1.107,6.462-2.199,12.927-3.345,19.383h65.222c-1.165-6.274,0.392-11.794,2.006-17.794L494.791,463.604z M253.28,396.733
	c4.424-0.95,10.232-1.875,13.877-0.147c0.075-0.007,0.128-0.012,0.128-0.012l0.038,0.087c0.418,0.211,0.813,0.451,1.162,0.74
	c0.544-0.039,1.048,0.104,1.216,0.521c1.333,3.3,2.731,6.569,4.146,9.834c0.419-0.092,0.805-0.1,1.017,0.05
	c4.777,3.362,10.729,6.056,13.807,11.289c2.112,3.592,2.739,9.19,6.477,11.001c0.396-0.089,0.774-0.104,1.01,0.016
	c0.41,0.207,0.826,0.374,1.241,0.543c0.18,0.013,0.347,0.038,0.537,0.036c0.46-0.003,0.5,0.121,0.323,0.292
	c8.509,2.933,18.063-1.369,26.063-4.341c1.31-0.486,2.624-0.973,3.944-1.448c-8.736-7.205-2.854-25.961-0.146-34.538
	c5.329-16.875,12.843-33.439,21.974-48.607c0.039-0.064,0.102-0.123,0.173-0.18c-0.007-0.003-0.013-0.007-0.019-0.01
	c-0.042-0.017-0.081-0.035-0.113-0.061c-1.771-1.406-3.626-2.863-5.564-4.228c-9.965,16.594-18.287,33.367-23.891,51.98
	c-0.062,0.203-0.327,0.376-0.674,0.51c-0.53,0.323-1.243,0.583-1.644,0.531c-9.33-1.203-18.672-2.325-28.021-3.376
	c-5.416-0.609-10.926-1.364-16.456-1.982l-5.553-0.56c-5.155-0.46-10.307-0.723-15.396-0.547c-0.826,0.027-0.938-0.255-0.716-0.592
	c-0.147-0.137-0.224-0.332-0.183-0.593c2.459-15.559,7.418-30.536,15.948-43.789c-1.406,0.688-2.824,1.352-4.275,1.955
	c-0.524,0.218-1.044,0.432-1.562,0.645c-5.614,8.497-9.497,18.231-12.814,27.803c-3.392,9.782-6.34,19.814-8.025,30.047
	c2.3-0.637,4.612-1.226,6.947-1.747C249.999,397.385,251.76,396.971,253.28,396.733z M302.459,433.764
	c-0.15-0.008-0.302-0.019-0.452-0.028l0.207,0.074L302.459,433.764z M319.252,430.657l10.979-4.178
	c-0.158-0.082-0.313-0.166-0.464-0.253c-4.194,1.519-8.422,3.344-12.647,4.826L319.252,430.657z"></path>
<path id="color_x5F_1" d="M278.219,270.239c-0.502-0.034-1.222-0.422-0.832-1.023c0.935-1.445,1.564-3.056,2.5-4.5
	c0.391-0.604,1.207-0.884,1.899-0.836c0.502,0.035,1.221,0.422,0.832,1.023c-0.935,1.445-1.564,3.056-2.5,4.5
	C279.728,270.006,278.911,270.287,278.219,270.239z M301.68,276.239c0.692,0.048,1.51-0.232,1.899-0.836
	c0.936-1.444,1.565-3.055,2.5-4.5c0.39-0.602-0.33-0.988-0.832-1.023c-0.692-0.048-1.51,0.232-1.899,0.836
	c-0.936,1.444-1.565,3.055-2.5,4.5C300.458,275.817,301.178,276.204,301.68,276.239z M417.367,290.366
	c0.588-0.056,1.512-0.226,1.942-0.681c1.117-1.185,1.608-2.65,1.642-4.264c0.008-0.407-2.882-0.032-2.897,0.775
	c-0.026,1.355-0.409,2.73-1.358,3.736C416.26,290.395,417.08,290.394,417.367,290.366z M335.541,298.894
	c-0.674-0.009-1.531,0.202-1.901,0.83c-0.35,0.59,0.293,0.994,0.824,1c0.507,0.006,0.813,0.021,1.22,0.244
	c0.456,0.251,0.703,0.757,0.87,1.229c0.404,1.144,3.285,0.316,2.897-0.775C338.823,299.65,337.359,298.917,335.541,298.894z
	 M463.353,314.794c0.523-0.047,1.611-0.427,1.611-1.116c0-0.833,0-1.667,0-2.5c0-0.705-0.711-0.907-1.313-0.854
	c-0.524,0.047-1.611,0.427-1.611,1.116c0,0.833,0,1.667,0,2.5C462.04,314.645,462.75,314.848,463.353,314.794z M429.933,315.055
	c-0.551,3.098-1.573,5.984-3.5,8.5c-0.479,0.626-1.863,1.04-2.62,0.817c-2.222-0.652-3.692-2.163-4.759-4.176
	c-0.112-0.213,0.443-0.558,1.103-0.788c-0.045-0.06-0.08-0.13-0.103-0.212c-0.17-0.634,0.749-1.11,1.227-1.218
	c2.002-0.446,3.598-1.563,5.041-2.981c0.503-0.494,1.366-0.729,2.049-0.55c0.219,0.058,0.375,0.167,0.471,0.304
	C429.456,314.678,429.985,314.751,429.933,315.055z M426.696,317.311c-1.4,1.027-2.952,1.816-4.667,2.247
	c0.656,1.206,1.484,2.242,2.582,2.955C425.578,320.892,426.242,319.147,426.696,317.311z M516.964,401.801
	c-3.021,14.381-9.134,27.791-14.911,41.224c5.768,6.123,2.973,13.869-2.741,18.164c0.059,0.109,0.076,0.242,0.033,0.407
	c-1.731,6.586-3.778,12.494-2.394,19.326c0.246,1.217-2.659,1.955-2.897,0.775c-0.026-0.13-0.043-0.258-0.067-0.388
	c-1.165-6.274,0.392-11.794,2.006-17.794c0.039-0.146,0.077-0.289,0.116-0.433c-0.431,0.192-0.87,0.366-1.316,0.521
	c-0.714,0.248-1.443,0.443-2.186,0.581c-1.971,4.359-5.924,7.628-10.676,8.814c-0.083,0.021-0.166,0.043-0.25,0.063
	c-0.281,0.238-0.729,0.426-1.179,0.517c-0.653,0.133-1.31,0.057-1.448-0.381c-0.283-0.884-0.604-1.761-0.927-2.637
	c-7.183,3.881-16.847,2.602-24.512,1.539c-8.634-1.196-15.188-5.087-21.507-10.173c-1.107,6.462-2.199,12.927-3.345,19.383
	c-0.021,0.121-0.041,0.241-0.063,0.362c-0.147,0.833-2.935,0.979-2.897,0.775c1.287-7.244,2.503-14.5,3.75-21.75
	c0.034-0.197,0.221-0.356,0.481-0.481c-1.071-0.908-2.143-1.845-3.221-2.807c-2.672-2.382-5.314-4.797-7.958-7.212
	c-0.397,0.307-0.944,0.537-1.397,0.509c-3.713-0.232-7.661,1.288-11.284,2.504c-0.528,3.307-0.979,6.625-1.419,9.943
	c-0.755,5.691-1.483,11.386-2.539,17.03c-0.23,1.235-3.188,1.638-2.928,0.249c1.628-8.709,2.481-17.53,3.851-26.279
	c-5.017,1.482-10.191,2.862-15.428,3.094c-0.574,0.024-1.128,0.018-1.686,0.015c-0.399-0.002-0.799-0.006-1.188-0.023
	c0.084,0.063,0.129,0.148,0.127,0.253c-0.001,0.039-0.002,0.078-0.018,0.123c-1.693,5.161-5.306,9.505-6,15
	c-0.116,0.929-3.027,1.478-2.891,0.39c0.236-1.87,0.813-3.604,1.531-5.28c-2.703,1.26-6.133,1.914-9.616,1.913
	c-3.829-0.001-7.687-0.794-10.664-2.421c-1.226-0.669-2.315-1.464-3.173-2.422c-0.139-0.155,0.09-0.379,0.463-0.585
	c0.062-0.033,0.123-0.065,0.189-0.098c-0.236,0.017-0.475,0.027-0.711,0.04c-6.625,0.339-13.479-0.581-19.724-1.309
	c-7.004-0.815-13.5-2.756-20.155-5.052c-2.628-0.906-5.306-1.887-8.027-2.663c-2.876-0.821-5.803-1.407-8.771-1.443
	c-0.57-0.007-1.143,0-1.716,0.036c-0.492,0.031-1.011,0.076-1.542,0.128c-0.081,0.008-0.165,0.017-0.247,0.025
	c0.054,0.087,0.103,0.173,0.151,0.259c4.644,7.996-2.723,10.678-10.016,12.509c-6.443,1.618-12.8,4.34-19.315,5.993
	c-1.71,0.434-3.433,0.787-5.169,1.033c-1.889,0.268-3.796,0.402-5.728,0.352c-0.538,0.337-1.3,0.616-1.71,0.56
	c-6.056-0.834-9.648-9.543-11.879-14.328c-2.952-6.336-4.721-13.424-7.761-19.698c0.058,11.596,0.063,23.278-3.03,34.535
	c-0.229,0.832-3.099,1.26-2.875,0.446c2.438-8.872,2.935-18.007,3.007-27.155c0.031-3.897-0.013-7.798-0.019-11.681
	c0-0.222,0.158-0.416,0.395-0.578c-3.844-5.948-10.74-15.511-11.521-22.836c-0.024,0.245-0.262,0.506-0.824,0.726
	c-0.825,0.274-1.597,0.662-2.333,1.123c0.167,0.213,0.235,0.501,0.126,0.875c-1.265,4.343-5.634,5.239-9.618,5.014
	c-0.935,1.567-2.234,2.833-4.18,3.153c-2.771,0.456-4.875-1.016-6.068-3.554c-0.646-1.372-1.064-2.771-1.351-4.191
	c-9.702,1.077-20.003-0.099-27.879-6.38c-7.331-5.85-12.011-14.236-14.706-23.124c-3.815-12.579-3.45-25.845-6.619-38.54
	c-1.488-5.961-5.106-9.363-9.665-13.219c-3.142-2.655-5.948-5.35-7.265-9.168c-2.755,0.033-5.531-0.988-7.882-2.353
	c-2.507-1.454-5.435-3.59-6.313-6.511c-0.857-2.848,0.729-5.1,2.886-6.721c-0.223-1.042-0.284-2.104-0.105-3.163
	c0.618-3.68,3.758-5.561,7.046-6.603c0.029-0.104,0.063-0.201,0.094-0.301c-5.648-3.72-16.483-10.637-11.479-14.263
	c8.523-6.177,21.98,4.117,28.553,9.139c0.202,0.153,0.207,0.335,0.095,0.514c3.687,1.12,7.248,2.99,9.559,5.044
	c4.602,4.091,6.566,9.91,8.447,15.606c0.547,0.018,1.004,0.24,1.015,0.764c0.243,13.002,7.382,21.281,14.02,31.708
	c5.414,8.506,8.119,18.558,14.16,26.636c0.164-0.89,0.428-1.725,0.848-2.464c2.176-3.824,6.603-3.038,10.104-1.57
	c0.157-0.314,0.313-0.629,0.472-0.943c0.198-0.396,0.623-0.628,1.063-0.77c-0.004-0.602,0.567-1.288,1.496-1.313
	c6.612-0.179,13.289-3.829,19.054-6.751c7.164-3.632,14.131-7.631,21.071-11.669c5.521-3.212,11.005-6.759,16.838-9.394
	c3.488-1.575,7.041-2.889,10.438-4.69c2.699-1.434,5.507-3.334,8.602-3.728c0.051-0.006,0.094-0.004,0.141-0.008
	c2.051-3.267,4.691-6.019,8.663-7.507c0.191-0.072,0.393-0.109,0.59-0.122c0.45-5.717-0.267-10.789-7.253-13.891
	c-6.495-2.885-13.066-4.369-16.207-11.479c-3.687-8.345-1.541-18.604,2.005-26.688c1.479-3.369,2.971-6.761,4.573-10.096
	c-0.157-0.005-0.313-0.031-0.456-0.092c-11.448-4.801-10.529-25.333,2.048-28.057c4.228-0.915,8.749-1.5,13.357-1.704
	c7.444-9.079,20.934-10.166,31.836-9.301c0.135,0.011,0.222,0.031,0.287,0.058c4.038-1.75,8.288-3.104,12.602-3.543
	c14.012-1.425,24.199,6.933,25.146,21.147c0.009,0.13-0.039,0.252-0.122,0.365c6.686,7.344,11.164,16.574,11.449,26.56
	c0.464,16.276-6.706,31.282-21.723,38.487c-0.034,0.018-0.07,0.028-0.106,0.044c-0.251,0.894-0.625,1.752-1.131,2.546
	c-2.131,3.341-6.74,5.923-10.872,6.191c0.005,0.198-0.055,0.422-0.218,0.675c-0.83,1.283-1.177,2.66-1.235,4.161
	c2.691,4.009,3.6,7.242,1.999,10.537c7.325,0.958,13.757,5.872,19.376,10.333c0.004,0.002,0.002,0.004,0.004,0.006
	c12.905,7.403,26.396,14.48,30.388,29.854c5.487-5.675,12.247-10,20.378-9.797c1.865-2.003,3.967-3.708,6.349-4.897
	c0.972-0.484,1.986-0.886,3.054-1.183c0.62-0.172,1.257-0.312,1.91-0.412c1.642-2.365,3.101-4.84,4.887-7.127
	c2.424-3.104,5.39-5.26,8.978-6.861c-1.031-1.297-2.283-2.369-3.86-3.041c-6.729-2.862-14.356,0.729-20.979-2.508
	c-9.604-4.695-5.488-17.189-4.438-25.507c-1.421-0.19-2.686-0.755-3.459-2.03c-1.616-2.662,1.036-7.078,2.319-9.302
	c0.726-1.258,1.448-2.497,2.162-3.73c-0.308,0.08-0.582,0.119-0.746,0.083c-4.617-0.984-1.504-11.786-0.341-14.264
	c2.233-4.758,6.626-7.516,11.521-6.541c0.603-1.046,1.235-2.072,1.928-3.062c-7.687,1.277-17.878-2.405-17.975-10.534
	c-0.084-7.149,8.438-8.604,15.227-8.019c-0.059-0.104-0.125-0.208-0.18-0.313c-4.49-3.493-10.65-7.655-10.938-12.94
	c-0.229-4.208,1.951-7.189,6.201-7.896c0.857-0.144,1.714-0.21,2.57-0.227c0.352-0.473,1.022-0.881,1.677-0.828
	c5.343,0.437,10.691,1.384,15.78,3c0.047-0.025,0.086-0.052,0.137-0.077c12.288-6.14,27.229-8.07,40.625-4.827
	c15.684,3.796,27.594,13.997,34.647,28.173c4.552,7.736,7.438,16.676,7.425,25.142c-0.026,16.643-8.763,31.133-18.396,44.096
	c-0.623,0.838-2.385,0.738-2.652-0.032c-0.004-0.008-0.011-0.015-0.014-0.022c-0.53-1.337-1.074-2.673-1.625-4.007
	c-3.099,6.119-6.533,13.292-13.192,15.488c-1.281,0.423-2.583,0.348-3.837-0.077c0.046,0.329-0.156,0.705-0.767,1.017
	c-9.401,4.813-20.448,6.812-29.217,12.842c-1.462,1.006-2.58,2.12-3.453,3.32c4.167,3.836,4.886,9.729,7.735,14.456
	c7.951-5.146,17.727-6.129,25.896-10.886c3.726-2.169,8.883-5.062,9.616-9.802c0.646-4.173-1.005-8.104-2.658-11.851
	c-0.411-0.933,2.436-1.822,2.897-0.775c2.263,5.125,3.415,9.908,1.78,14.144c4.546-3.36,9.45-4.833,13.604-0.865
	c0.013,0.013,0.018,0.024,0.027,0.036c4.904,1.824,10.979,0.352,16.003,2.205c8.025,2.961,7.031,12.337,5.438,19.12
	c-0.004,0.017-0.016,0.031-0.022,0.048C518.664,379.933,519.272,390.815,516.964,401.801z M468.71,430.634
	c-2.112-1.907-4.418-3.572-6.772-5.166c-5.918-4.003-10.972-10.381-18.854-7.913c-6.582,2.062-12.866,4.326-19.604,5.189
	c4.891,0.936,9.976,1.35,14.536,2.229c2.256,0.435,4.662,0.898,7.02,1.55c0.123-0.007,0.237-0.002,0.331,0.023
	c0.918,0.252,1.81,0.578,2.685,0.938c2.497,0.931,4.823,2.186,6.726,3.973c1.266,0.98,2.477,2.054,3.639,3.186
	c2.237,1.134,4.859,1.495,7.35,1.06c-1.692-0.865-3.293-2.115-4.609-3.083c-3.405-2.5-6.6-5.587-10.309-7.63
	c-1.157-0.638,1.521-1.802,2.315-1.364c5.364,2.955,9.435,7.971,14.998,10.618C472.686,436.399,470.745,432.471,468.71,430.634z
	 M509.099,358.106c0.911,0.032,0.908,0.35,0.558,0.675c0.504-0.065,0.981,0.042,1.179,0.412c0.93,1.743,1.768,3.508,2.525,5.292
	c0.502-6.124-0.979-12.063-8.176-13.602c-3.99-0.854-8.643-0.214-12.674-1.23c-0.521,0.097-1.043,0.051-1.343-0.233
	c-0.138-0.133-0.281-0.233-0.425-0.348c-0.203-0.084-0.406-0.167-0.604-0.264c-0.06-0.028-0.045-0.084,0.014-0.152
	c-7.956-4.803-21.146,16.109-24.453,21.014c-9.354,13.884-14.859,29.861-19.629,45.804c1.88-0.227,3.752-0.144,5.702,0.354
	c1.774,0.453,3.248,1.308,4.62,2.311c0.516-0.172,1.024-0.317,1.529-0.438c6.155-13.546,11.375-27.706,19.91-40.006
	C485.196,367.083,495.373,357.625,509.099,358.106z M433.539,356.276c-1.506,3.492-1.558,7.552-1.571,11.91
	c-0.005,1.136-2.457,1.628-2.865,0.571c-0.019-0.021-0.038-0.037-0.049-0.062c-1.499-3.309-2.975-6.63-4.424-9.961
	c-9.815,15.889-14.933,34.478-19.686,52.369c-0.025,0.096-0.086,0.187-0.165,0.271c2.076,2.441,4.002,5.221,6.832,7.068
	c2.31,1.509,4.896,2.549,7.618,3.318c0.295-0.143,0.599-0.238,0.845-0.244c8.036-0.19,15.053-3.129,22.642-5.339
	c0.111-0.033,0.223-0.059,0.334-0.089c5.633-18.86,12.531-36.894,24.271-52.815c1.109-1.505,2.719-3.703,4.647-6.034
	c-9.31,5.292-20.447,6.584-29.059,13.027c-0.446,0.334-1.835,0.709-2.25,0.117C437.612,366.042,436.85,360.352,433.539,356.276z
	 M383.977,410.461c-0.274-0.04-0.447-0.144-0.406-0.328c0.642-2.872,1.324-5.755,2.053-8.633c-6.305-1.461-13.42,3.959-17.748,8.027
	c-1.495,1.406-3.11,2.954-4.471,4.668c-0.066,0.083-0.131,0.168-0.195,0.252c-1.282,1.667-2.309,3.49-2.741,5.495
	c0.061,0.201,0,0.452-0.263,0.756c-2.03,2.364-6.508,6.315-2.941,9.056c2.247,1.727,4.147,3.479,5.667,5.735
	c2.147-3.235,4.732-6.286,7.483-8.935c2.671-2.569,5.688-5.153,9.371-5.976c-0.5-0.604-0.887-1.271-1.11-2.015
	c-0.14-0.158-0.201-0.377-0.145-0.663C379.105,415.053,381.25,412.472,383.977,410.461z M463.15,304.501
	c-8.639-4.905-15.638-12.071-23.538-18.027c0.746,3.035,0.274,6.429-1.133,9.16c-1.863,3.617-5.36,7.495-9.332,9.402
	c9.934,2,19.889,1.949,29.954,1.916c0.042-0.092,0.12-0.195,0.256-0.318C460.414,305.678,461.746,304.897,463.15,304.501z
	 M439.361,283.293c3.842,2.636,7.412,5.638,10.979,8.642c-1.228-4.536-0.82-9.188-1.557-13.932
	c-4.484,1.602-10.52,1.757-16.188,0.517c1.578,0.856,3.06,1.878,4.371,3.175c0.485,0.479,0.903,1.005,1.267,1.562
	C438.689,283.148,439.123,283.13,439.361,283.293z M412.707,250.431c0.298,0.247,0.595,0.494,0.887,0.744l-1.524-2.851
	C412.156,249.026,412.368,249.732,412.707,250.431z M413.531,274.207c2.378-0.3,4.828-0.255,7.152,0.257
	c0.454-0.152,0.903-0.239,1.187-0.137c0.462,0.17,0.93,0.333,1.396,0.496c-2.471-1.565-4.497-3.532-5.772-5.896
	c-0.215,0.126-0.437,0.246-0.665,0.357C415.576,270.837,414.5,272.49,413.531,274.207z M405.475,291.128
	c0.169-0.034,0.321-0.05,0.435-0.033c3.232,0.467,5.338,2.082,7.024,4.887c0.99,1.648,1.839,3.585,3.176,4.98
	c3.229,3.369,8.646,0.75,10.719-2.854c2.891-5.026,4.125-11.572,0.271-16.526c-3.562-4.577-8.702-6.744-14.348-5.942
	C410.118,280.672,408.222,286.136,405.475,291.128z M422.681,304.061c8.131,4.108,16.802-10.433,13.707-17.838
	c-1.575-3.77-4.658-5.978-8.166-7.586c0.003,0.003,0.006,0.006,0.009,0.009c4.729,5.137,5.492,12.073,1.979,18.184
	C428.609,299.607,425.907,302.72,422.681,304.061z M469.534,320.342c0.906-0.599,1.507-1.255,1.533-1.954
	C470.628,319.075,470.112,319.732,469.534,320.342z M427.517,233.512c2.38,0.864,4.688,1.891,6.901,3.085
	c2.623-4.667,18.158-4.43,21.296-4.424c9.084,0.017,18.267,1.398,26.28,5.419c-4.873-3.626-10.44-6.353-16.64-7.853
	C452.737,226.686,439.251,227.927,427.517,233.512z M419.403,233.57c6.399,3.189,12.32,8.309,17.066,12.294
	c24.255,20.373,40.674,47.102,52.514,76.189c7.669-10.565,15.007-22.648,16.008-35.875c0.664-8.786-1.413-18.041-5.456-26.152
	c-0.183-0.078-0.329-0.195-0.405-0.372c-0.41-0.939-0.846-1.866-1.301-2.78c-1.314-2.249-2.779-4.391-4.39-6.372
	c-7.609-9.364-18.534-14.843-30.515-15.849c-5.327-0.447-10.729-0.471-16.043,0.171c-1.247,0.151-9.836,0.82-9.91,2.88
	c-0.004,0.114-0.036,0.221-0.08,0.321c3.894,2.419,7.435,5.425,10.437,9.143c0.939,1.164-1.813,2.318-2.651,1.281
	C438.196,240.426,429.141,235.877,419.403,233.57z M409.132,247.51c0.204-3.142,2.282-6.086,5.517-7.849
	c2.271-1.237,4.71-1.844,7.084-1.801c-1.923-1.197-3.883-2.312-5.886-3.311c-2.593-1.293-5.547-2.404-8.489-2.396
	c-4.436,0.013-6.92,3.813-4.846,7.827C404.067,242.993,406.521,245.327,409.132,247.51z M399.355,255.425
	c1.887-0.862,4.332-1.521,6.297-1.963C403.203,253.597,400.859,254.167,399.355,255.425z M401.402,292.816
	c1.738-3.045,3.396-6.103,4.838-9.41c1.126-2.58,2.267-5.163,3.556-7.654c-0.157-0.192-0.104-0.453,0.196-0.688
	c-2.758-0.995-4.856-0.259-6.524,2.424c-1.188,1.908-2.023,4.027-2.478,6.23C400.682,285.222,399.601,291.11,401.402,292.816z
	 M430.262,338.131c3.151,3.111,4.54,7.271,5.782,11.425c9.268-6.225,20.471-8.509,30.328-13.556c0.137-0.07,0.275-0.115,0.412-0.147
	c-3.89-2.308-6.954-7.733-6.888-11.623c-1.533-0.263-2.997-1.005-4.246-2.377c-0.665-0.729,2.086-1.764,2.703-1.087
	c0.69,0.759,1.452,1.24,2.239,1.523c0.869-0.55,2.423-0.591,2.38,0.242c3.17-0.425,6.172-3.584,6.587-7.017
	c0.433-3.573-2.948-13.02-7.913-8.53c-0.013,0.011-0.031,0.021-0.045,0.032c0.956,0.32-0.654,1.652-1.652,1.654
	c-11.046,0.022-21.951,0.188-32.826-2.042c-0.605-0.124-0.666-0.401-0.454-0.693c-2.428,0.596-4.937,0.347-7.293-1.202
	c-0.714-0.01-1.438-0.115-2.175-0.347c-6.163-1.94-6.247-10.388-12.597-11.75c-0.175,0.291-0.345,0.583-0.526,0.87
	c-1.641,2.577-3.424,5.192-4.572,8.039c-2.083,5.156,0.67,6.35,5.745,5.326c1.783-0.358,2.322,1.505,0.502,1.871
	c-0.979,0.197-2.182,0.454-3.418,0.591c-1.423,10.809-4.886,26.379,11.505,25.86C419.122,335.029,426.044,333.966,430.262,338.131z
	 M422.627,348.212c0.408-0.044,0.738,0.005,0.824,0.209c1.895,4.528,3.854,9.03,5.841,13.52c0.286-2.76,0.913-5.386,2.247-7.699
	c-0.12-0.231,0.082-0.494,0.431-0.718c0.446-0.674,0.961-1.317,1.555-1.927c-0.863-2.912-1.792-6.424-3.451-9.323
	C426.871,343.719,424.589,345.822,422.627,348.212z M405.427,361.053c0.344,0.196-0.162,0.619-0.803,0.943
	c-0.751,0.924-1.464,1.909-2.138,2.938c-1.192,1.819-2.271,3.764-3.238,5.718c-1.917,3.871-3.407,7.763-4.528,10.705
	c-3.398,8.919-5.979,18.121-8.088,27.425c2.707-1.469,5.646-2.396,8.107-2.538c3.525-0.2,5.926,1.074,7.946,2.925
	c4.822-18.052,10.211-36.592,20.479-52.349c0.089-0.137,0.269-0.26,0.491-0.362c-0.883-2.047-1.763-4.094-2.626-6.147
	c-0.002-0.004-0.004-0.009-0.006-0.014c-0.021,0.029-0.044,0.06-0.065,0.089c-1.986,2.75-3.808,5.707-6.229,8.397
	c-0.933,1.037-3.692,0.427-2.451-0.951c0.558-0.619,1.071-1.266,1.568-1.922c0.077-0.102,0.155-0.202,0.231-0.306
	c-0.063,0.012-0.13,0.021-0.193,0.034C410.655,356.292,407.851,358.322,405.427,361.053z M375.614,384.71
	c-4.549,7.951-8.366,16.478-11.019,25.285c2.174-1.965,4.524-3.663,6.59-4.984c4.321-2.767,9.562-5.451,14.827-5.022
	c2.383-9.151,5.338-18.218,9.521-26.636c1.829-3.679,4.039-7.63,6.802-10.985C390.102,361.958,380.994,375.303,375.614,384.71z
	 M352.135,342.937c-8.173,13.798-15.056,28.74-20.099,43.937c-2.807,8.458-10.409,29.887-1.091,37.393
	c3.907-1.302,7.89-2.326,12.009-2.592c0.806-0.802,1.672-1.655,2.593-2.499c-0.663,0.127-1.339,0.008-1.493-0.511
	c-3.368-11.378-3.044-22.474-3.007-34.201c0.003-1.087,2.917-1.65,2.911-0.309c-0.035,11.553-0.321,22.535,2.993,33.732
	c0.005,0.016,0.002,0.03,0.007,0.045c3.961-3.336,8.727-5.983,13.637-3.698c0.014,0.007,0.021,0.015,0.033,0.021
	c3.332-12.88,9.08-25.925,16.913-36.696c1.289-1.771,2.68-3.532,4.169-5.21c-0.582,0.104-1.101,0.086-1.156-0.153
	C377.021,357.195,364.525,350.013,352.135,342.937z M298.26,430.982c8.508,2.934,18.063-1.369,26.063-4.341
	c1.311-0.486,2.624-0.973,3.944-1.448c-8.736-7.205-2.854-25.961-0.146-34.538c5.329-16.875,12.844-33.439,21.975-48.607
	c0.039-0.064,0.101-0.123,0.173-0.18c-0.007-0.003-0.013-0.008-0.02-0.01c-0.042-0.017-0.081-0.035-0.112-0.061
	c-1.771-1.406-3.627-2.863-5.565-4.228c-9.965,16.594-18.287,33.367-23.89,51.98c-0.063,0.203-0.328,0.376-0.674,0.51
	c-0.53,0.323-1.243,0.583-1.645,0.531c-9.33-1.203-18.672-2.325-28.021-3.376c-5.416-0.609-10.926-1.364-16.455-1.982
	c-1.851-0.207-3.701-0.395-5.554-0.56c-5.155-0.46-10.307-0.723-15.396-0.547c-0.826,0.027-0.938-0.255-0.715-0.592
	c-0.148-0.137-0.225-0.332-0.184-0.593c2.459-15.559,7.418-30.536,15.948-43.789c-1.406,0.688-2.824,1.352-4.275,1.955
	c-0.523,0.218-1.044,0.432-1.562,0.645c-5.614,8.497-9.497,18.231-12.814,27.803c-3.392,9.782-6.34,19.814-8.025,30.047
	c2.3-0.637,4.613-1.226,6.947-1.747c0.379-0.084,0.755-0.177,1.135-0.258c1.036-0.219,2.386-0.542,3.888-0.865
	c4.424-0.95,10.232-1.875,13.877-0.147c0.055,0.025,0.112,0.049,0.166,0.075c0.418,0.211,0.812,0.451,1.162,0.74
	c0.544-0.039,1.048,0.104,1.216,0.521c1.333,3.3,2.73,6.569,4.146,9.834c0.418-0.092,0.805-0.1,1.017,0.05
	c4.776,3.361,10.729,6.056,13.807,11.289c2.112,3.592,2.739,9.19,6.477,11.001c0.396-0.089,0.774-0.104,1.01,0.016
	c0.41,0.207,0.826,0.374,1.241,0.543c0.18,0.012,0.347,0.038,0.537,0.036C298.395,430.688,298.435,430.812,298.26,430.982z
	 M326.824,335.01c5.13-4.818,5.908-8.048,1.967-13.913c-0.046-0.067-0.083-0.13-0.129-0.197c-0.04-0.059-0.064-0.117-0.086-0.175
	c-0.004-0.011-0.01-0.022-0.013-0.033c-0.008-0.031-0.009-0.066-0.016-0.1c-3.714,1.824-7.476,3.547-11.307,5.115
	c-3.761,1.538-8.229,2.615-11.646,4.774c-1.491,0.942-2.804,2.092-4.029,3.338c6.354,0.201,9.084,6.947,12.192,11.765
	C318.823,343.014,322.673,338.909,326.824,335.01z M337.688,295.46l-1.238-0.049c-1.021,0.176-2.12,0.88-3.239,2.312
	c-0.148,0.19-0.368,0.333-0.618,0.427c-0.416,0.198-0.909,0.282-1.309,0.195c-4.869,5.67-10.668,10.635-17.838,13.105
	c-7.942,2.737-16.184,3.072-24.46,2.479c0.029,0.035,0.063,0.063,0.091,0.098c3.878,4.682,0.854,13.562,0.42,19.234
	c0.464,3.236,0.525,6.68,2.155,9.584c3.604-4.288,6.775-9.66,11.744-12.377c7.528-4.118,16.049-6.497,23.782-10.306
	c0.263-0.131,0.88-0.244,1.396-0.276c0.115-1.808,0.67-3.424,1.652-4.97c-2.611-0.607-4.669-2.5-5.174-6.218
	c-0.187-1.368,2.72-2.088,2.897-0.775c0.982,7.229,8.84,5.876,12.563,1.352C343.811,305.268,341.591,296.461,337.688,295.46z
	 M283.158,297.696c0.863,1.247,1.91,2.432,3.199,3.235c0.604,0.376,1.463,0.884,2.208,0.845c0.753-0.039,1.307-1.759,1.493-2.264
	c0.046-0.123,0.142-0.234,0.268-0.335c-0.172-0.005-0.33-0.035-0.459-0.098C287.798,298.078,285.433,297.175,283.158,297.696z
	 M333.186,229.004c-6.301,1.25-11.742,4.443-15.759,9.534c-0.063,0.081-0.158,0.153-0.272,0.217
	c0.574,0.307,1.153,0.607,1.711,0.939c19.156,11.408,24.12,34.604,23.278,55.395c2.292,2.46,3.499,6.103,3.142,9.513
	c14.093-7.624,21.574-25.731,17.986-41.354C359.642,247.439,348.212,234.807,333.186,229.004z M329.847,221.144
	c-6.092,0.875-12.03,3.125-17.316,6.268c-2.176,1.294-7.159,3.771-7.587,6.685c-0.006,0.042-0.024,0.082-0.043,0.122
	c3.718,0.872,7.295,2.102,10.635,3.712c4.315-4.915,10.038-8.002,16.34-9.52c-0.289-0.495,1.854-1.416,2.568-1.156
	c6.352,2.288,12.452,6.003,17.61,10.743C349.91,227.437,341.728,219.436,329.847,221.144z M287.533,232.494
	c4.935-0.098,9.937,0.258,14.77,1.173c1.288-3.343,6.896-6.083,9.542-7.501c1.131-0.607,2.295-1.193,3.476-1.759
	c-9.347-0.72-20.498-0.156-26.89,7.645C288.267,232.25,287.925,232.394,287.533,232.494z M271.701,260.233
	c1.797-3.582,3.768-7.066,6.023-10.369c-0.638,0.092-1.274,0.171-1.912,0.28c-1.994,0.34-1.021-1.431,0.379-1.67
	c0.933-0.159,1.865-0.291,2.798-0.415c0.061-0.081,0.113-0.166,0.173-0.247c0.506-0.683,3.261-0.98,2.72-0.078
	c16.145-1.53,32.033,2.228,45.27,12.421c3.648,2.812,6.438,5.968,8.564,9.405c0.743,0.086,1.282,0.513,0.713,1.234
	c0.432,0.767,0.836,1.544,1.208,2.337c-2.063-10.117-6.294-19.672-14.009-26.588c-9.98-8.95-23.419-11.969-36.563-11.547
	c-7.582,0.242-18.429-0.553-21.104,8.304C264.108,249.436,265.229,257.418,271.701,260.233z M265.051,288.56
	c3.829-1.848,8.387-2.565,12.638-2.47c1.854-6.073,4.822-11.925,9.872-15.872c1.061-0.829,3.438-0.032,1.885,1.182
	c-3.058,2.391-5.26,5.695-6.828,9.219c-0.915,2.059-1.745,4.152-2.342,6.327c-0.207,0.72-0.397,1.442-0.57,2.17
	c1.36,0.427,2.539,0.333,3.54-0.267c-0.524-0.304,1.167-1.182,1.869-1.183c9.51-0.013,23.188-0.232,25.207,11.417
	c6.617-0.348,13.372-0.577,19.529-3.059c-1.311-4.015-0.657-9.102-0.083-12.979c0.576-3.892,1.223-8.771,3.603-12.146
	c-1.666-2.791-3.78-5.379-6.513-7.669c-13.206-11.074-29.521-15.42-46.216-13.723c-5.377,7.652-9.839,16.726-12.742,25.521
	C266.576,279.036,265.279,283.847,265.051,288.56z M277.485,339.064c2.874-2.397,6.275-4.424,9.319-3.51
	c-0.027-0.225-0.058-0.446-0.087-0.669c-0.103-0.092-0.166-0.213-0.16-0.375c0.006-0.201,0.015-0.402,0.023-0.604
	c-0.011-0.068-0.019-0.139-0.029-0.208c-0.025-0.169,0.002-0.329,0.066-0.476c0.146-2.353,0.49-4.702,0.735-6.976
	C282.154,328.578,279.671,333.919,277.485,339.064z M276.874,334.633c-1.506,0.434-3.022,1.343-4.433,2.177
	c-0.021,0.041-0.035,0.079-0.065,0.122c-9.406,13.65-14.778,29.245-17.378,45.54c11.949-0.286,24.209,1.725,36.037,3.056
	c9.07,1.021,18.134,2.104,27.188,3.261c5.713-18.481,14.096-35.177,24.101-51.722c0.125-0.206,0.436-0.362,0.804-0.476
	c-3.249-2.146-6.727-3.932-10.44-4.723c-0.593,0.853-1.351,1.716-2.297,2.604c-5.496,5.163-10.576,10.779-17.792,13.516
	c-1.278,0.485-2.85-0.497-1.516-1.211c-2.576-4.026-5.412-11.684-11.242-11.033c-0.015,0.003-0.024,0.001-0.039,0.003
	c-2.227,2.592-4.226,5.433-6.493,7.929c-0.214,0.234-0.956,0.445-1.606,0.533c-0.604,0.657-2.084,0.945-2.529,0.222
	c-1.04-1.695-1.55-3.526-1.881-5.408c-0.045-0.035-0.089-0.07-0.125-0.114c-3.6-4.421-8.807,2.043-11.479,4.726
	c-0.721,0.723-3.188,0.621-2.578-0.383c-0.052-0.127-0.05-0.284,0.041-0.484C274.368,340.081,275.505,337.261,276.874,334.633z
	 M131.899,318.149c-0.268-1.676-1.961-7.733-2.301-8.583c-0.987-2.465-2.115-4.874-3.121-7.331c-0.092-0.077-0.198-0.16-0.316-0.25
	c-1.085,5.907-0.494,15.656,5.411,16.553C131.598,318.399,131.719,318.267,131.899,318.149z M119.826,309.855
	c0.136,0.119,0.179,0.271,0.097,0.449c0.428,1.717,1.268,3.447,2.375,4.98c1.555,2.151,3.563,4.288,5.975,5.482
	c0.513,0.254,1.055,0.498,1.619,0.613c0.02,0.004,0.029,0.007,0.047,0.011c0.229-0.177,0.529-0.318,0.848-0.405
	c0.189-0.29,0.346-0.595,0.454-0.919c-8.185,0.707-9.317-11.271-7.893-18.091C120.014,303.573,119.164,306.65,119.826,309.855z
	 M127.559,324.221c-0.001-0.008-0.004-0.016-0.006-0.024c-0.087-0.431,1.178-0.877,2.064-0.963c0.021-0.152,0.023-0.325,0.005-0.519
	c-0.274,0.02-0.553,0.038-0.846,0.021c-3.35-0.196-6.334-2.803-8.336-5.301c-1.117-1.394-2.236-3.037-2.99-4.798
	c-2.104,3.098,0.608,6.794,4.021,8.948C122.38,322.155,125.447,323.88,127.559,324.221z M194.007,415.48
	c-0.771-4.898-0.033-10.005-0.709-14.981c-0.411-3.036-1.372-5.906-2.209-8.847c-0.865-3.042-2.566-7.646-3.032-11.872
	c-8.636-9.194-11.415-22.085-18.479-32.316c-6.375-9.235-11.814-17.171-12.461-28.504c-0.29-0.012-0.507-0.089-0.563-0.261
	c-1.69-5.072-3.202-11.034-6.918-15.083c-4.088-4.455-10.566-7.104-16.555-7.578c-4.576-0.361,2.076,6.86,3.17,8.023
	c2.646,2.81,5.493,5.422,8.115,8.251c0.471,0.507-2.219,1.546-2.729,0.996c-3.724-4.02-8.088-7.551-11.313-12.012
	c-2.309-3.194-2.566-5.677,1.753-6.446c1.172-0.209,2.465-0.232,3.812-0.118c-2.943-2.091-6.05-4.005-9.267-5.594
	c-2.284-1.128-4.663-2.309-7.18-2.813c-1.507-0.303-6.845-0.521-5.343,2.48c2.249,4.493,7.529,6.96,11.893,9.853
	c0.61-0.041,1.094,0.089,0.95,0.445c-0.021,0.051-0.04,0.109-0.061,0.163c0.361,0.255,0.715,0.516,1.057,0.78
	c0.479-0.032,0.891,0.065,1.012,0.376c0.081,0.208,0.189,0.458,0.316,0.736c0.022,0.023,0.051,0.043,0.075,0.066
	c0.141,0.132,0.176,0.272,0.146,0.413c1.807,3.846,6.293,12.244,4.9,16.248c0.035,0.052,0.057,0.109,0.047,0.184
	c-0.214,1.542-0.91,2.78-1.953,3.599c0.289,1.608-0.344,2.862-1.515,3.598c2.985,8.274,13.569,10.931,16.134,19.491
	c3.616,12.07,3.072,24.922,6.188,37.094c2.246,8.768,5.841,17.886,12.451,24.326C173.537,413.769,183.451,416.328,194.007,415.48z
	 M212.678,415.454c-0.057-0.07-0.104-0.152-0.124-0.257c-1.572-7.592,0.069-15.451-1.831-23.013
	c-1.841-7.319-4.779-14.372-5.143-21.977c-1.125,0.222-2.258,0.365-3.396,0.414c-0.413,0.826-0.826,1.652-1.239,2.479
	c-0.291,0.583-1.064,0.827-1.665,0.914c-0.206,0.03-1.503,0.074-1.218-0.497c0.029-0.063,0.062-0.123,0.092-0.184
	c-0.002-0.001-0.006-0.003-0.008-0.004c-2.061-1.064-5.862-3.223-6.666,0.268c-0.467,2.031-0.354,4.146-0.053,6.198
	c0.634,4.297,1.799,8.481,3.014,12.646c1.588,5.446,1.923,10.456,2.016,16.172c0.061,3.687,0.05,7.93,1.973,11.231
	c0.384,0.66,2.549,4.438,4.024,2.322c0.462-0.662,0.813-1.319,1.12-1.992c-0.005-0.255,0.12-0.534,0.332-0.784
	c0.234-0.595,0.451-1.203,0.661-1.854c0.266-0.821,3.116-1.205,2.873-0.453c-0.183,0.563-0.382,1.148-0.609,1.733
	c2.543,0.131,4.946-0.347,5.779-3.204C212.625,415.556,212.651,415.505,212.678,415.454z M222.609,404.902
	c0.369-0.192,1.008-0.242,1.53-0.176c4.729-1.383,9.419-2.885,14.144-4.264c1.695-10.602,4.728-21.044,8.307-31.15
	c3.113-8.795,6.567-17.723,11.471-25.723c-0.237,0.12-0.476,0.229-0.712,0.356c-6.056,3.242-11.933,6.81-17.883,10.233
	c-7.214,4.15-14.476,8.324-22.068,11.748c-2.842,1.281-5.836,2.623-8.914,3.551c0.383,7.644,3.516,14.527,5.137,21.93
	c1.572,7.175,0.415,14.519,1.59,21.69c0.376-0.163,0.765-0.322,1.192-0.489c0.853-0.331,1.817,0,1.999,0.472
	C218.084,409.632,219.162,406.698,222.609,404.902z M290.75,454.248c-13.979,1.863-35.729,6.538-38.196-11.051
	c-0.067-0.484,0.828-0.896,1.643-1.036c-2.229-3.435-2.881-7.961-2.643-12.464c0.003-0.053,0.021-0.104,0.048-0.151
	c-1.073-2.453-1.003-4.996,1.233-7.492c0.067-0.075,0.161-0.141,0.268-0.201c-0.325-1.167-0.14-2.237,0.795-3.127
	c7.341-6.992,17.799,7.027,25.404,8.967c-3.996-9.424-8.303-18.712-12.163-28.192c-0.229-0.011-0.408-0.065-0.497-0.183
	c-1.225-1.618-3.315-2.318-5.777-2.479c-0.52-0.033-1.055-0.043-1.603-0.032c-5.52,0.117-12.253,2.35-15.499,3.198
	c-0.917,0.239-1.826,0.504-2.738,0.759c-0.433,0.646-1.698,0.949-2.367,0.66c-4.787,1.396-9.529,2.928-14.318,4.327
	c-10.646,5.669,8.355,27.102,10.794,33.644c2.245,6.025,4.365,12.104,7.025,17.964c1.945,4.287,5.275,13.478,10.55,15.377
	c0.135,0.048,0.273,0.079,0.41,0.117c0.022-0.007,0.045-0.015,0.066-0.021c0.311-0.1,0.591-0.158,0.75-0.145
	c9.732,0.837,18.451-4.131,27.612-6.464c3.052-0.777,8.021-1.246,10.21-3.699C294.122,459.875,292.408,456.771,290.75,454.248z
	 M365.539,460.587c-0.21-8.935-5.688-17.854-13.616-22.052c-6.437-3.407-15.781-5.396-20.346-11.439
	c-0.006-0.007-0.005-0.016-0.01-0.023c-0.472-0.176-0.915-0.377-1.337-0.595c-0.158-0.082-0.313-0.166-0.464-0.253
	c-4.194,1.519-8.422,3.344-12.647,4.826c-4.905,1.721-9.81,2.962-14.66,2.712c-0.15-0.008-0.302-0.019-0.452-0.028
	c-2.513-0.179-5.009-0.773-7.482-1.919c-4.225-0.626-5.228-4.052-6.813-8.122c-2.407-6.182-7.371-9.407-12.5-12.803
	c2.34,5.338,4.715,10.662,6.989,16.029c0.207,0.486-0.336,0.936-1.01,1.154c0.753,0.469-0.708,1.705-1.731,1.636
	c-3.607-0.245-6.787-2.393-9.714-4.345c-1.005-0.67-13.229-9.145-13.661-5.621c-0.433,3.539,4.941,7.287,7.338,9.099
	c2.765,2.089,5.639,4.117,8.721,5.717c1.288,0.668-1.349,1.981-2.281,1.496c-2.277-1.182-12.15-6.984-15.665-12.022
	c-2.881,6.249,9.049,13.722,12.649,17.2c0.804,0.777-1.935,1.875-2.688,1.147c-2.251-2.175-6.496-5.16-9.573-8.521
	c0.631,5.565,3.085,10.682,9.116,12.418c0.745,0.214-1.774,1.234-2.397,1.056c-2.314-0.667-4.123-1.791-5.537-3.22
	c3.974,17.085,28.744,8.854,41.131,8.28c10.914-0.504,20.747,5.389,31.145,7.793c5.641,1.304,11.563,1.86,17.338,2.26
	C351.912,462.902,359.451,463.471,365.539,460.587z M383.495,457.15c-10.863-0.943-18.226-7.636-22.132-18.545
	c-0.045-0.057-0.078-0.121-0.088-0.195c-1.251-2.382-2.834-4.403-4.986-6.059c-0.957-0.736-2.373-1.534-2.975-2.63
	c-1.848-3.371,2.37-7.372,4.389-9.693c0.401-1.599,1.146-3.148,2.121-4.627c-0.567,0.224-1.219,0.337-1.551,0.184
	c-5.129-2.388-10.271,3.74-13.554,7.024c-0.181,0.18-0.544,0.318-0.942,0.4c-0.27,0.125-0.544,0.21-0.774,0.216
	c-3.462,0.094-6.973,0.916-10.512,2.062c0.422,0.229,0.867,0.439,1.344,0.623c0.215,0.013,0.384,0.066,0.468,0.178
	c4.895,6.48,14.727,7.94,21.378,12.024c7.678,4.714,13.007,13.782,12.771,22.81c-0.021,0.798-2.344,1.205-2.811,0.904
	c-2.765,1.104-5.683,1.753-8.676,2.092c4.221,4.562,15.437,6.151,20.435,2.641c0.136-0.096,0.467-0.199,0.843-0.281
	c1.306-2.731,2.861-5.372,3.814-8.273C382.192,457.589,382.844,457.281,383.495,457.15z M417.419,448.887
	c-2.623-2.396-5.249-4.786-7.91-7.139c-4.26-3.769-8.312-7.943-13.269-10.795c-3.997-2.299-8.197-4.316-12.039-6.877
	c-0.967-0.644-2.072-1.345-3.061-2.16c-0.23,0.149-0.505,0.265-0.808,0.307c-3.969,0.55-7.59,4.794-10.078,7.636
	c-2.196,2.508-4.287,5.146-5.976,8.027c2.269,6.335,5.903,12.79,12.336,15.652c5.37,2.392,11.296,2.329,16.985,1.264
	C401.267,453.366,409.502,448.846,417.419,448.887z M447.03,468.557c8.134,2.873,22.634,5.363,30.485,0.404
	c-3.004-7.586-7.347-14.818-12.048-21.358c-2.78-3.867-6.002-8.228-9.749-11.91c-0.477-0.245-0.938-0.519-1.377-0.833
	c-0.266-0.059-0.499-0.185-0.662-0.397c-4.234-5.518-12.677-6.639-19.066-7.72c-6.315-1.067-12.874-1.716-18.988-3.709
	c-5.594-1.822-8.525-4.967-12.084-9.092c-0.088-0.103-0.176-0.204-0.266-0.308c-0.277-0.323-0.559-0.65-0.846-0.984
	c-3.489-4.054-7.458-5.167-12.401-2.82c-3.265,1.55-7.669,3.907-8.523,7.772c0.83,3.217,5.284,5.335,7.868,6.817
	c3.343,1.918,6.802,3.649,10.084,5.668c8.159,5.015,15.157,12.574,22.214,18.999C429.267,456.001,437.085,465.045,447.03,468.557z
	 M499.44,444.134c-0.012-0.006-0.023-0.013-0.035-0.02c-0.008-0.004-0.015-0.008-0.021-0.012c-0.028-0.018-0.056-0.036-0.08-0.056
	c-0.047-0.036-0.093-0.074-0.129-0.12c-0.002-0.001-0.004-0.002-0.005-0.003c-5.699-7.021-13.873-10.164-20.827-15.605
	c-5.588-4.371-11.664-10.243-19.027-9.033c-0.377,0.063-0.755,0.138-1.139,0.236c-0.005,0.001-0.009,0.003-0.013,0.004
	c1.266,1.053,2.509,2.152,3.897,3.093c2.945,1.995,6.029,3.908,8.679,6.3c1.442,1.302,4.063,3.445,3.188,5.689
	c-0.631,1.615-3.033,2.112-4.529,2.119c-0.69,0.003-1.389-0.134-2.08-0.361c-0.065,0.021-0.115,0.048-0.188,0.067
	c-2.025,0.56-4.229,0.811-6.377,0.635c2.447,2.691,4.648,5.578,6.623,8.324c5.854,8.143,11.337,17.116,14.466,26.707
	c5.497-1.136,9.045-7.725,9.211-12.902c0.026-0.842,2.911-1.214,2.897-0.775c-0.054,1.682-0.396,3.282-0.948,4.78
	c1.235-0.165,2.36-0.54,3.362-1.089c0.021-0.075,0.041-0.15,0.062-0.227c0.149-0.573,0.985-0.957,1.729-1.035
	C502.709,456.824,503.581,448.788,499.44,444.134z M508.171,360.425c-0.188-0.354-0.104-0.685,0.121-0.958
	c-0.14,0.032-0.271,0.049-0.386,0.045c-2.271-0.08-4.429,0.175-6.479,0.698c-3.617,0.922-6.901,2.69-9.881,4.991
	c-6.502,5.023-11.553,12.58-15.416,19.42c-5.873,10.398-10.26,21.465-15.184,32.314c-0.05,0.11-0.099,0.22-0.147,0.331
	c0.056-0.003,0.111-0.007,0.169-0.01c6.226-0.307,11.637,3.058,16.904,7.304c7.183,5.788,15.918,9.545,22.285,16.243
	c5.449-12.543,11.327-25.256,13.883-38.738C516.798,387.524,515.165,373.555,508.171,360.425z M373.046,413.661
	c-3.904,3.279-9.354,6.07-11.427,10.99c-0.643,1.525,2.274,1.482,2.767,0.315c1.884-4.472,7.015-7.021,10.573-10.01
	C376.468,413.691,374.142,412.741,373.046,413.661z M306.195,262.056c1.643,1.114,3.067,2.445,4.468,3.845
	c0.789,0.788,3.538-0.323,2.678-1.183c-1.519-1.518-3.082-2.947-4.863-4.155C307.604,259.971,304.957,261.216,306.195,262.056z
	 M280.801,258.467c1.798-0.563,3.544-0.338,5.352,0.092c0.653,0.155,1.444-0.067,2.029-0.355c0.243-0.119,1-0.653,0.34-0.811
	c-2.683-0.638-5.329-0.737-7.984,0.092c-0.267,0.083-1.445,0.398-1.316,0.879C279.345,258.831,280.534,258.55,280.801,258.467z
	 M171.043,181.776c0.695,0.733,3.449-0.332,2.691-1.132c-2.132-2.25-4.463-4.271-6.992-6.063c-0.557-0.396-1.316-0.278-1.917-0.026
	c-0.247,0.104-1.328,0.765-0.773,1.158C166.579,177.506,168.911,179.526,171.043,181.776z M182.084,212.617
	c-0.104,1.572,2.853,1.203,2.945-0.188c0.271-4.008,0.021-7.966-0.762-11.906c-0.283-1.422-3.187-0.667-2.898,0.776
	C182.116,205.051,182.341,208.802,182.084,212.617z M143.558,250.129c-4.515,0.371-8.986,0.233-13.477-0.341
	c-0.634-0.08-3.34,1.016-1.875,1.202c4.696,0.602,9.386,0.716,14.104,0.327C143.075,251.255,145.471,249.972,143.558,250.129z
	 M108.577,242.314c-3.222-2.04-6.094-4.471-8.574-7.37c-0.771-0.899-3.541,0.198-2.668,1.217c2.59,3.026,5.616,5.584,8.979,7.714
	C107.272,244.481,109.886,243.142,108.577,242.314z M108.427,174.595c-4.625,2.736-8.735,6.136-12.101,10.339
	c-0.77,0.962,2.132,0.695,2.685,0.006c3.117-3.896,6.9-7.042,11.188-9.58C111.884,174.365,109.309,174.073,108.427,174.595z
	 M127.979,168.921c3.255-0.642,6.532-1.098,9.829-1.43c0.179,0.148,0.416,0.244,0.66,0.25c1.523,0.035,3.043,0.134,4.559,0.294
	c0.681,0.072,1.564-0.224,1.892-0.869c0.326-0.644-0.284-1.095-0.865-1.155c-1.518-0.161-3.035-0.259-4.56-0.295
	c-0.385-0.01-0.809,0.062-1.176,0.229c-3.329,0.332-6.638,0.791-9.925,1.438C127.063,167.646,125.982,169.314,127.979,168.921z
	 M117.353,209.698c0.018-12.479,11.404-17.665,22.306-18.778c0.506-0.053,0.813,0.001,0.97,0.111
	c9.225,0.745,17.885,6.839,18.438,16.809c0.525,9.453-6.013,16.607-15.076,18.491C132.026,228.815,117.331,223.984,117.353,209.698z
	 M120.558,212.192c2.354,11.385,15.662,16.416,26.069,12.043c7.337-3.083,11.233-11.083,8.999-18.795
	c-2.278-7.869-8.949-12.681-17.071-13.026c-0.043-0.002-0.073-0.009-0.112-0.012C127.875,193.735,118.094,200.268,120.558,212.192z
	 M115.829,248.389c-3.067,2.796-6.254,5.461-9.268,8.317c-0.416,0.394-1.631,0.562-2.25,0.375c-0.2-0.001-0.361-0.04-0.45-0.134
	c-5.558-5.812-11.116-11.624-16.674-17.437c-0.103-0.107,0.014-0.263,0.243-0.422c0.044-0.097,0.104-0.19,0.198-0.28
	c2.294-2.194,4.588-4.387,6.881-6.58c-1.945-3.138-3.437-6.47-4.511-10c-3.612,0-7.228,0-10.842,0
	c-0.865,0.429-2.221,0.346-2.221-0.641c0-8.042,0-16.084,0-24.126c0-1.058,2.234-1.57,2.798-0.715c3.476,0,6.952,0,10.428,0
	c1.041-3.207,2.436-6.257,4.236-9.121c-2.396-2.292-4.794-4.584-7.19-6.875c-0.125-0.12-0.135-0.254-0.063-0.391
	c-0.036-0.065-0.02-0.149,0.087-0.261c5.56-5.812,11.116-11.625,16.674-17.437c0.505-0.528,3.119-0.83,2.705-0.205
	c2.918,2.788,5.833,5.576,8.748,8.363c2.715-1.082,5.484-1.99,8.31-2.741c0-3.975,0-7.947,0-11.921c0-0.819,1.137-1.296,1.995-1.169
	c0.041-0.005,0.083-0.012,0.123-0.012c8.042,0,16.084,0,24.127,0c0.975,0,1.027,0.47,0.683,0.941c0,3.771,0,7.542,0,11.313
	c3.368,0.837,6.606,2.017,9.729,3.521c2.713-2.595,5.427-5.19,8.142-7.785c-0.265-0.823,2.11-1.686,2.809-0.957
	c5.559,5.813,11.116,11.625,16.674,17.438c0.146,0.152,0.178,0.313,0.135,0.468c0.023,0.151-0.06,0.343-0.306,0.578
	c-2.755,2.636-5.512,5.271-8.269,7.906c1.466,2.542,2.682,5.191,3.618,7.975c0.043-0.005,0.087-0.011,0.125-0.011
	c3.638,0,7.272,0,10.909,0c0.819-0.525,2.438-0.63,2.438,0.31c0,8.042,0,16.084,0,24.126c0,0.533-0.836,0.951-1.61,1.034
	c-0.182,0.061-0.359,0.099-0.521,0.099c-3.773,0-7.546,0-11.318,0c-0.953,2.997-2.21,5.855-3.781,8.579
	c2.696,2.58,5.396,5.16,8.093,7.738c0.103,0.098,0.172,0.199,0.228,0.3c0.327,0.047,0.481,0.179,0.245,0.425
	c-0.049,0.052-0.1,0.104-0.147,0.154c-0.086,0.416-0.476,0.784-0.945,0.989c-5.193,5.431-10.387,10.861-15.58,16.293
	c-0.066,0.069-0.17,0.136-0.297,0.195c-0.607,0.505-2.056,0.881-2.548,0.417c-3.34-3.146-7.018-5.904-10.39-9.013
	c-2.265,0.876-4.572,1.608-6.929,2.188c0,3.881,0,7.762,0,11.643c0.448,0.653-0.146,1.768-1.345,1.768c-8.042,0-16.084,0-24.127,0
	c-0.599,0-0.966-0.208-1.143-0.497c-0.192-0.124-0.317-0.311-0.317-0.58c0-3.983,0-7.967,0-11.949
	c-2.808-0.589-5.566-1.331-8.286-2.252C115.862,248.353,115.852,248.369,115.829,248.389z M114.505,247.535
	c-0.113-0.702,1.431-1.601,2.304-1.293c3.243,1.143,6.549,2.059,9.929,2.698c1.23,0.233,1.008,1.067,0.342,1.577
	c0,3.622,0,7.243,0,10.865c7.025,0,14.051,0,21.076,0c0-3.578,0-7.156,0-10.733c-0.9-0.269-0.896-1.307,0.508-1.6
	c3.27-0.683,6.438-1.631,9.521-2.913c0.665-0.277,1.404-0.145,1.772,0.154c0.091,0.032,0.173,0.073,0.234,0.133
	c3.174,2.993,6.651,5.641,9.887,8.563c4.912-5.136,9.823-10.272,14.736-15.41c-2.558-2.442-5.112-4.888-7.668-7.332
	c-0.855,0.027-1.591-0.349-1.104-1.146c0.004-0.005,0.006-0.011,0.011-0.017c-0.271-0.597,0.202-1.194,0.844-1.489
	c1.61-2.885,2.894-5.911,3.819-9.101c0.321-1.105,2.465-1.243,2.789-0.237c3.398,0,6.797,0,10.194,0c0-7.48,0-14.961,0-22.441
	c-3.586,0-7.171,0-10.757,0c-0.75,0.54-2.25,0.716-2.497-0.054c-0.932-2.91-2.165-5.676-3.69-8.318
	c-0.488-0.103-0.764-0.365-0.409-0.81c-0.097-0.519,0.517-0.97,1.199-1.172c2.483-2.374,4.966-4.748,7.449-7.123
	c-5.067-5.299-10.134-10.599-15.2-15.896c-2.517,2.406-5.032,4.813-7.55,7.219c-0.089,0.085-0.212,0.159-0.355,0.223
	c-0.142,0.67-1.854,1.396-2.623,1.003c-3.114-1.599-6.354-2.805-9.719-3.689c-0.779,0.242-1.721,0.164-1.838-0.479
	c-0.731-0.224-0.538-0.725-0.02-1.14c0-3.564,0-7.129,0-10.693c-7.027,0-14.057,0-21.084,0c0,3.81,0,7.62,0,11.429
	c0,0.137-0.038,0.262-0.097,0.379c0.032,0.488-0.301,1.017-1.103,1.215c-3.327,0.83-6.582,1.857-9.75,3.177
	c-1.114,0.464-2.259-0.317-2.116-1.072c-0.356,0.052-0.668,0.033-0.817-0.111c-2.634-2.518-5.266-5.035-7.897-7.552
	c-4.926,5.15-9.851,10.301-14.775,15.452c2.451,2.342,4.9,4.686,7.352,7.029c0.211,0.201,0.096,0.442-0.182,0.663
	c-2.066,3.243-3.595,6.711-4.646,10.41c-0.267,0.938-2.91,1.363-2.914,0.502c-3.266,0-6.531,0-9.797,0c0,7.51,0,15.02,0,22.528
	c3.281,0,6.562,0,9.843,0c0.262-0.807,2.646-1.369,2.885-0.515c1.052,3.784,2.557,7.363,4.612,10.7
	c0.432,0.13,0.626,0.474,0.504,0.82c0.284,0.499-0.387,0.987-1.144,1.214c-2.055,1.966-4.11,3.931-6.165,5.896
	c5.072,5.307,10.146,10.612,15.221,15.917c2.599-2.383,5.282-4.67,7.888-7.044C113.707,247.734,114.091,247.604,114.505,247.535z
	 M276.576,134.319c0.695,0.733,3.449-0.332,2.691-1.132c-1.688-1.782-3.533-3.382-5.535-4.801c-0.557-0.396-1.317-0.278-1.917-0.026
	c-0.247,0.104-1.328,0.766-0.774,1.158C273.043,130.938,274.89,132.539,276.576,134.319z M285.296,158.646
	c-0.104,1.572,2.852,1.203,2.944-0.188c0.213-3.193,0.017-6.353-0.608-9.49c-0.283-1.422-3.187-0.667-2.898,0.775
	C285.32,152.695,285.496,155.643,285.296,158.646z M218.207,177.398c2.063,2.409,4.476,4.45,7.153,6.145
	c0.96,0.606,3.572-0.732,2.264-1.561c-2.537-1.604-4.795-3.518-6.749-5.801C220.105,175.28,217.335,176.379,218.207,177.398z
	 M234.033,156.225c0.2-9.977,9.275-13.991,18.017-14.928c0.484-0.052,0.782-0.006,0.944,0.095
	c7.402,0.671,14.484,5.563,14.701,13.687c0.202,7.602-5.182,13.196-12.493,14.595C245.702,171.488,233.803,167.733,234.033,156.225z
	 M237.266,158.672c2.152,8.626,12.557,12.581,20.547,8.889c5.577-2.577,8.337-9.003,6.44-14.872
	c-1.936-5.997-6.977-9.607-13.248-9.913c-0.021-0.001-0.036-0.004-0.059-0.006C242.608,143.888,234.914,149.26,237.266,158.672z
	 M202.025,165.757c0-6.369,0-12.738,0-19.106c0-1.034,2.133-1.543,2.754-0.765c2.597,0,5.193,0,7.791,0
	c0.813-2.45,1.89-4.785,3.263-6.98c-1.884-1.801-3.767-3.602-5.648-5.402c-0.118-0.113-0.129-0.239-0.071-0.366
	c-0.026-0.063-0.005-0.145,0.095-0.249c4.402-4.603,8.805-9.207,13.205-13.809c0.494-0.517,3.016-0.819,2.736-0.247
	c2.233,2.137,4.469,4.272,6.704,6.41c2.021-0.796,4.082-1.477,6.181-2.043c0-3.087,0-6.174,0-9.263c0-0.844,1.206-1.32,2.072-1.152
	c0.008,0,0.015-0.002,0.021-0.002c6.369,0,12.738,0,19.107,0c0.921,0,1.014,0.42,0.729,0.865c0,0.007,0.003,0.012,0.003,0.018
	c0,2.955,0,5.909,0,8.864c2.556,0.644,5.018,1.537,7.396,2.665c2.046-1.957,4.092-3.912,6.137-5.868
	c-0.14-0.807,2.142-1.611,2.822-0.899c4.402,4.604,8.804,9.206,13.205,13.81c0.196,0.204,0.188,0.421,0.063,0.623
	c-0.035,0.131-0.103,0.263-0.232,0.388c-2.153,2.059-4.308,4.119-6.46,6.178c1.13,1.973,2.073,4.026,2.807,6.18
	c2.782,0,5.565,0,8.349,0c0.842-0.479,2.35-0.546,2.35,0.36c0,6.369,0,12.738,0,19.106c0,0.39-0.451,0.719-0.996,0.899
	c-0.361,0.143-0.762,0.207-1.109,0.207c-2.867,0-5.735,0-8.604,0c-0.735,2.286-1.697,4.468-2.891,6.552
	c2.098,2.006,4.193,4.011,6.291,6.015c0.112,0.107,0.186,0.218,0.241,0.329c0.28,0.056,0.397,0.186,0.179,0.416
	c-0.03,0.031-0.062,0.063-0.092,0.095c-0.069,0.45-0.496,0.849-1.009,1.055c-4.035,4.221-8.069,8.44-12.104,12.659
	c-0.052,0.053-0.129,0.104-0.217,0.151c-0.572,0.525-2.087,0.938-2.594,0.461c-2.599-2.446-5.453-4.603-8.086-7.01
	c-1.65,0.628-3.33,1.164-5.042,1.597c0,3.018,0,6.036,0,9.055c0.354,0.66-0.242,1.69-1.396,1.69c-6.368,0-12.736,0-19.105,0
	c-0.583,0-0.943-0.199-1.126-0.476c-0.188-0.124-0.311-0.312-0.311-0.577c0-3.11,0-6.222,0-9.332
	c-2.111-0.449-4.189-1.007-6.24-1.692c-2.374,2.156-4.831,4.219-7.159,6.425c-0.417,0.396-1.642,0.564-2.259,0.373
	c-0.179-0.007-0.324-0.045-0.406-0.13c-4.401-4.603-8.803-9.207-13.205-13.81c-0.088-0.093-0.013-0.221,0.154-0.354
	c0.037-0.124,0.112-0.249,0.233-0.366c1.789-1.712,3.58-3.423,5.37-5.134c-1.509-2.45-2.67-5.047-3.513-7.797
	c-2.705,0-5.408,0-8.112,0C203.434,166.831,202.025,166.763,202.025,165.757z M212.119,147.541c-2.389,0-4.777,0-7.168,0
	c0,5.844,0,11.688,0,17.532c2.425,0,4.851,0,7.273,0c0.496-0.715,2.58-1.148,2.803-0.354c0.828,2.975,2.021,5.789,3.636,8.414
	c0.344,0.143,0.501,0.432,0.422,0.733c0.194,0.442-0.335,0.87-0.989,1.106c-1.585,1.516-3.171,3.031-4.757,4.547
	c3.924,4.103,7.847,8.205,11.771,12.308c1.962-1.786,3.979-3.509,5.941-5.296c0.2-0.184,0.466-0.315,0.745-0.417
	c0.204-0.647,1.513-1.326,2.287-1.053c2.545,0.896,5.143,1.621,7.794,2.124c1.149,0.218,1.029,0.96,0.466,1.473
	c0,0.06,0,0.119,0,0.179c0.227-0.385,1.806-0.959,2.271-0.899c3.534,0.452,7.054,0.563,10.606,0.271
	c1.911-0.156-0.482,1.126-1.248,1.189c-3.759,0.309-7.493,0.221-11.233-0.258c-0.23-0.03-0.349-0.083-0.396-0.149
	c0,2.673,0,5.348,0,8.021c5.36,0,10.722,0,16.082,0c0-2.681,0-5.36,0-8.041c-0.269-0.058-0.493-0.188-0.567-0.466
	c-0.166-0.623,0.765-1.101,1.231-1.197c0.072-0.016,0.144-0.034,0.216-0.049c0.198-0.079,0.413-0.13,0.63-0.146
	c2.262-0.516,4.466-1.191,6.614-2.084c0.534-0.222,1.483-0.427,1.936,0.088c0.062,0.07,0.096,0.143,0.115,0.214
	c2.423,2.277,5.063,4.309,7.541,6.522c3.762-3.935,7.522-7.868,11.285-11.802c-1.982-1.896-3.966-3.791-5.947-5.688
	c-0.767-0.021-1.37-0.379-0.977-1.091c-0.184-0.531,0.21-1.055,0.762-1.353c1.248-2.253,2.244-4.613,2.966-7.1
	c0.312-1.073,2.342-1.236,2.757-0.324c2.505,0,5.01,0,7.514,0c0-5.815,0-11.631,0-17.446c-2.693,0-5.389,0-8.083,0
	c-0.772,0.492-2.176,0.629-2.413-0.113c-0.716-2.234-1.656-4.362-2.815-6.396c-0.456-0.136-0.613-0.495-0.429-0.853
	c-0.077-0.481,0.452-0.903,1.08-1.12c1.904-1.822,3.811-3.646,5.715-5.466c-3.916-4.096-7.832-8.191-11.748-12.287
	c-1.893,1.809-3.782,3.616-5.674,5.424c-0.068,0.066-0.16,0.115-0.241,0.17c-0.271,0.643-1.862,1.284-2.596,0.908
	c-2.42-1.241-4.935-2.18-7.546-2.873c-0.722,0.176-1.518,0.076-1.66-0.479c-0.432-0.233-0.489-0.753-0.123-1.138
	c0.028-0.029,0.065-0.046,0.097-0.073c0-2.69,0-5.383,0-8.074c-5.363,0-10.728,0-16.091,0c0,2.779,0,5.56,0,8.34
	c0.36-0.211,0.829-0.316,1.152-0.38c2.528-0.498,5.074-0.855,7.635-1.117c0.377-0.187,0.819-0.264,1.221-0.255
	c1.206,0.027,2.408,0.104,3.608,0.232c0.582,0.063,1.192,0.514,0.866,1.155c-0.327,0.646-1.211,0.943-1.892,0.871
	c-1.2-0.128-2.402-0.206-3.609-0.233c-0.234-0.006-0.464-0.093-0.64-0.229c-2.552,0.261-5.085,0.618-7.604,1.113
	c-0.184,0.036-0.571,0.041-0.868-0.056c-0.104,0.382-0.438,0.739-1.065,0.896c-2.607,0.649-5.16,1.452-7.644,2.485
	c-0.62,0.259-1.529,0.367-1.981-0.269c-0.143-0.198-0.171-0.417-0.136-0.628c-0.273,0.02-0.505-0.015-0.628-0.131
	c-2.007-1.919-4.014-3.838-6.021-5.756c-3.774,3.946-7.551,7.895-11.324,11.842c1.45,1.386,2.899,2.771,4.35,4.159
	c0.008-0.009,0.009-0.016,0.016-0.023c2.688-3.36,5.978-6.079,9.676-8.267c0.883-0.522,3.457-0.23,1.773,0.766
	c-3.36,1.988-6.322,4.455-8.767,7.508c-0.308,0.385-1.345,0.637-2.069,0.618c0.266,0.254,0.53,0.509,0.797,0.763
	c0.192,0.185,0.106,0.404-0.123,0.608c-1.642,2.566-2.847,5.309-3.679,8.236C214.762,147.83,212.339,148.256,212.119,147.541z" fill="#000000"></path>
</svg>