<?xml version="1.0" standalone="no"?>
<svg version="1.1" id="Layer_1" xmlns="http://www.w3.org/2000/svg" xmlns:xlink="http://www.w3.org/1999/xlink" x="0px" y="0px" width="595.279px" height="595.281px" viewBox="0 0 595.279 595.281" enable-background="new 0 0 595.279 595.281" xml:space="preserve">
<path id="color_x5F_2" fill="#1d4ed8" d="M356.046,419.653c3.365,14.002,6.486,28.173,6.879,42.625H321.28
	c0.045-0.123,0.068-0.251,0.057-0.39c-2.383-24.526-4.299-49.017-7.75-73.447c-1.824-12.904-5.045-25.461-8.779-37.894
	c0.023-0.107-0.002-0.216-0.096-0.316c-1.52-5.043-3.121-10.066-4.75-15.083c9.834,8.064,29.436,10.896,35.689-0.198
	c0.096,0.438,0.176,0.878,0.273,1.317c3.16,13.914,6.564,27.773,9.943,41.637C349.263,391.82,352.696,405.725,356.046,419.653z
	 M334.438,330.457c0.023-0.139,0.104-0.266,0.219-0.382c-0.453-2.432-0.836-4.86-1.176-7.292l-1.594,0.705
	c-11.346,9.396-26.031,5.108-36.858-3.489c1.014,3.138,2.037,6.272,3.063,9.406c0.286,0.024,0.524,0.117,0.643,0.303
	C305.433,340.255,331.521,347.427,334.438,330.457z M380.632,207.308c-6.85-3.91-16.15-4.365-23.834-4.907
	c-8.197-0.578-16.43-0.763-24.646-0.58c-20.596,0.458-41.701,0.876-61.395,7.633c-8.438,2.896-17.866,6.573-24.895,12.268
	c-1.517,1.228-4.98,5.345-0.849,6.283c1.836,0.416,3.732,0.43,5.605,0.298c2.662-0.187,5.303-0.509,7.938-0.938
	c0.457-0.074,0.758-0.027,0.939,0.087c-0.18-1.032-0.354-2.065-0.526-3.098c-0.04,0.028-0.083,0.053-0.122,0.081
	c-1.151,0.836-3.516-0.161-1.92-1.316c12.433-9.012,30.535-10.579,45.396-11.3c17.969-0.872,37.063-3.89,54.527,1.836
	c0.801-0.46,2.482-0.62,2.484-0.267c0.002,0.493,0.006,0.992,0.012,1.49c0.016,0.074,0.02,0.149,0.002,0.226
	c0.002,0.148,0.004,0.298,0.006,0.447l3.031,0.565c0,0,0.332,1.207,0.615,3.095l1.08-0.116c3.008-0.953,5.998-1.959,8.912-3.167
	C375.243,214.995,386.358,210.577,380.632,207.308z M260.931,211.426c-0.489,0.058-0.906-0.002-0.992-0.262
	c-0.756-2.286-0.531-4.917-0.777-7.29c-0.127-1.208-0.227-2.489-0.627-3.646c-0.146-0.428-0.32-1.02-0.646-1.377
	c0,0.003,0,0.004-0.003,0.007c-2.264,4.346-2.052,10.074-2.049,14.878C257.525,212.916,259.224,212.149,260.931,211.426z
	 M372.88,202.031l-1.52-0.916c-0.01,0.091-0.014,0.182-0.023,0.272c-0.023,0.186-0.176,0.341-0.393,0.471
	c0.762,0.098,1.533,0.208,2.305,0.337L372.88,202.031z M339.337,199.888c0,0.007-0.004,0.014-0.004,0.021
	c7.498-0.028,15.01,0.221,22.453,0.99c0.02-1.313,0.289-2.639,1.164-3.641c0.516-0.593,1.211-1.02,1.963-1.307l-0.137-0.023
	c-0.818,0.378-2.244,0.62-2.338,0.236c-4.277-17.472-15.561-32.351-32.355-38.612c2.293,4.082,3.895,8.623,5.084,13.026
	C337.747,180.137,338.974,190.005,339.337,199.888z M364.726,201.205c1.125,0.115,2.4,0.23,3.758,0.37
	c0.086-1.873-0.455-4.332-2.504-4.831c-0.041-0.01-0.064-0.015-0.1-0.023c-0.264,0.238-0.486,0.537-0.637,0.849
	C364.696,198.72,364.632,199.96,364.726,201.205z M259.292,228.644c0.139-0.028,0.272-0.054,0.402-0.081
	c-0.022-0.124-0.044-0.248-0.066-0.373C259.556,228.344,259.442,228.5,259.292,228.644z M307.671,153.146
	c0.76-0.039,1.521-0.069,2.287-0.089c1.941-0.053-0.252,1.4-1.186,1.427c2.061,2.863,3.238,6.606,4.313,9.823
	c1.988,5.958,3.598,12.068,4.734,18.246c0.66,3.583,3.629,14.352-0.029,17.947c1.717-0.082,3.436-0.154,5.156-0.217
	c0.285-3.537,2.004-8.095,6.088-8.543c4.225-0.464,4.928,4.169,4.811,7.382c-0.014,0.372-0.369,0.679-0.824,0.871
	c1.127-0.024,2.256-0.042,3.385-0.056c-0.371-9.173-1.402-18.459-3.801-27.333c-1.494-5.539-3.465-11.455-6.693-16.393
	c-0.232-0.063-0.463-0.133-0.697-0.194c-0.273-0.071-0.102-0.257,0.256-0.455c-1.932-2.803-4.287-5.264-7.238-7.106
	c-0.271-0.168-0.318-0.361-0.23-0.549c-0.211,0.049-0.398,0.072-0.527,0.052c-6.576-0.997-11.129,1.614-15.58,5.683
	c1.232-0.148,2.475-0.272,3.725-0.364C306.286,152.939,307.249,152.795,307.671,153.146z M330.114,194.595
	c-0.268-0.404-0.855-1.243-1.426-1.049c-2.178,0.74-2.719,4.74-2.846,6.574c-0.002,0.021-0.01,0.042-0.014,0.063
	c1.512-0.048,3.027-0.092,4.543-0.133c0.293-0.008,0.586-0.012,0.879-0.02c-0.201-0.125-0.33-0.317-0.32-0.599
	C330.989,197.914,330.995,195.93,330.114,194.595z M262.836,210.388c0.03,0.092-0.003,0.188-0.076,0.282
	c16.716-6.722,34.253-9.034,52.125-10.021c0.279-0.304,0.717-0.585,1.199-0.68c-1.068,0.21-0.268-0.083-0.07-0.986
	c0.154-0.71,0.266-1.425,0.297-2.152c0.088-1.954-0.02-3.912-0.236-5.854c-0.52-4.669-1.381-9.302-2.479-13.868
	c-1.67-6.954-3.354-16.833-8.279-22.454c-1.678,0.112-3.354,0.278-5.021,0.502c-0.025,0.026-0.053,0.05-0.078,0.076
	c-0.471,0.463-2.528,0.724-2.753,0.368c-0.026,0.005-0.056,0.009-0.083,0.015c-2.475,0.581-7.646,1.916-12.771,3.985
	c-4.37,2.094-8.362,4.951-11.7,8.804c-7.187,8.295-10.453,18.667-14.246,28.758C263.295,197.056,261.849,207.403,262.836,210.388z
	 M293.849,214.436c-0.002,0.113-0.008,0.225-0.01,0.338c2.354-0.285,4.816-0.552,7.38-0.796
	C298.827,214.099,296.36,214.243,293.849,214.436z M318.868,212.856c14.039-0.435,24.209,0.344,28.146,0.727
	C337.817,211.954,328.308,212.25,318.868,212.856z M379.563,215.001c1.869-0.836,3.385-1.752,3.961-2.674
	C382.515,213.246,381.153,214.145,379.563,215.001z"></path>
<path id="color_x5F_1" d="M332.786,251.122c-0.365-4.491-1.744-9.455-1.348-13.958c0.07-0.819,2.926-1.092,2.896-0.776
	c-0.5,5.678,6.93,36.924-8.318,29.369c-0.254-0.127,1.998-1.329,2.738-0.962C334.304,267.544,333.024,254.05,332.786,251.122z
	 M342.438,247.664c0,2.167-0.066,4.325-0.99,6.325c-0.332,0.717,2.488,0.42,2.881-0.426c0.971-2.1,1.006-4.403,1.008-6.676
	C345.337,246.163,342.44,246.658,342.438,247.664z M314.329,252.314c0.971-2.1,1.006-4.403,1.008-6.676
	c0-0.725-2.896-0.229-2.898,0.776c0,2.167-0.066,4.325-0.99,6.325C311.116,253.456,313.937,253.159,314.329,252.314z
	 M315.774,271.489c-3.215-0.98-5.467-3.419-6.438-6.602c-0.311-1.019-3.199-0.214-2.898,0.776c1.141,3.74,3.855,6.27,7.563,7.399
	C314.917,273.343,317.407,271.987,315.774,271.489z M301.493,229.034c7.93,1.001,23.963,18.353,27.842,2.55
	c0.248-1.016-2.66-0.561-2.893,0.385c-1.834,7.469-8.031,3.389-12.436,0.709c-3.313-2.018-6.77-4.661-10.727-5.16
	C302.417,227.408,299.876,228.831,301.493,229.034z M351.829,227.862c1.604-1.144-0.803-1.941-1.883-1.173
	c-1.92,1.368-3.492,3.131-5.146,4.797c-2.443,2.465-4.729,4.063-7.785,1.497c-0.895-0.752-3.484,0.554-2.258,1.585
	C341.671,240.369,346.794,231.449,351.829,227.862z M415.817,416.355c-1.605-12.533-3.984-24.987-5.98-37.467
	c-0.15-0.938-3.063-0.256-2.898,0.776c1.996,12.478,4.385,24.933,5.982,37.466c1.172,9.203,2.389,18.401,3.551,27.605
	c0.746,5.908,1.854,11.962,1.967,17.929c0.018,0.861,2.92,0.31,2.898-0.776c-0.115-5.968-1.225-12.018-1.967-17.929
	C418.214,434.754,416.995,425.556,415.817,416.355z M452.021,429.926c3.77,10.548,7.338,21.167,10.316,31.961
	c0.166,0.6-2.73,1.387-2.898,0.776c-4.857-17.603-11.277-34.738-17.598-51.854c-3.34-9.038-6.703-18.07-9.871-27.173
	c-0.658-1.893-1.291-3.794-1.924-5.695c-0.596-0.014-0.549-0.323-0.213-0.639c-1.656-4.965-3.344-9.917-5.57-14.664
	c-11.645-24.84-36.23-55.8-67.137-51.094c2.643,7.009,4.426,14.627,6.131,20.933c1.268,1.275,1.939,3.122,1.566,5.563
	c-0.102,0.66-2.646,1.351-2.885,0.623c-0.605-1.846-1.156-3.708-1.693-5.574c-2.895-2.104-8.535-0.748-11.521,2.478
	c-2.836,3.061-5.105,6.503-7.4,9.975c-0.033,0.052-0.08,0.1-0.135,0.146c2.467,10.494,5.025,20.967,7.58,31.439
	c3.393,13.916,6.83,27.821,10.174,41.749c3.393,14.13,6.547,28.425,6.895,43.013c0.02,0.742-2.889,1.162-2.896,0.776
	c-0.004-0.129-0.01-0.258-0.016-0.388c-0.391-14.452-3.512-28.623-6.879-42.625c-3.35-13.928-6.781-27.833-10.176-41.749
	c-3.379-13.862-6.783-27.723-9.943-41.637c-0.1-0.439-0.18-0.878-0.273-1.317c-6.254,11.095-25.855,8.263-35.689,0.197
	c1.629,5.018,3.23,10.04,4.75,15.083c0.096,0.102,0.119,0.208,0.096,0.317c3.734,12.432,6.957,24.988,8.779,37.894
	c3.451,24.432,5.367,48.921,7.75,73.447c0.014,0.139-0.012,0.267-0.057,0.39c-0.391,1.066-2.732,1.51-2.842,0.388
	c-2.385-24.526-4.252-49.023-7.75-73.448c-1.855-12.947-5.098-25.543-8.846-38.015c-5.327-3.4-7.872-9.063-12.573-13.104
	c-4.549-3.908-8.634-3.61-12.554,0.863c-1.512,1.725-3.024,3.425-4.678,5.016c-0.309,0.298-2.553,1.101-2.602,0.188
	c-0.639-12.122-8.646-57.506,14.245-54.15c-2.065-7.832-2.827-16.012-6.489-23.328c-0.178,0.062-0.338,0.108-0.447,0.122
	c-3.813,0.495-8.572,0.33-11.096-3.073c-1.98-2.668-2.191-6.285-1.086-9.364c0.627-1.747,1.59-3.183,2.766-4.299
	c-0.394-0.013-0.734-0.129-0.893-0.407c-3.73-6.562-5.428-13.772-6.743-21.102c-0.022-0.124-0.044-0.248-0.066-0.373
	c-0.071,0.154-0.187,0.31-0.336,0.453c-0.269,0.259-0.644,0.475-1.073,0.544c-4.418,0.72-16.385,3.683-18.043-2.681
	c-1.198-4.601,8.238-9.273,13.209-11.611c-0.269-0.022-0.446-0.097-0.446-0.231c0.002-3.337,0.082-6.717,0.594-10.02
	c0.295-1.893,0.624-4.37,1.933-5.936c-0.038-0.06-0.05-0.131-0.017-0.219c4.703-12.38,8.639-26.077,19.606-34.532
	c7.163-5.523,15.25-8.494,23.82-9.894c5.83-5.401,12.084-8.735,20.428-7.471c0.461,0.07,0.547,0.229,0.43,0.415
	c0.332-0.045,0.631-0.026,0.814,0.089c3.34,2.085,5.986,4.922,8.125,8.153c19.133,5.372,32.004,21.096,36.664,40.136
	c0.045,0.179-0.199,0.373-0.561,0.54c-0.816,0.378-2.242,0.62-2.338,0.236c-4.275-17.472-15.559-32.351-32.354-38.612
	c2.291,4.082,3.895,8.623,5.082,13.026c2.58,9.559,3.807,19.427,4.17,29.31c0,0.007-0.002,0.014-0.002,0.021
	c7.496-0.028,15.008,0.221,22.451,0.99c0.02-1.313,0.291-2.639,1.164-3.642c0.516-0.593,1.211-1.02,1.965-1.307
	c0.668-0.255,1.385-0.4,2.066-0.438c3.209-0.174,4.621,2.789,4.379,5.602c-0.008,0.091-0.012,0.182-0.023,0.272
	c-0.021,0.186-0.174,0.341-0.393,0.471c0.764,0.098,1.533,0.208,2.305,0.337c4.725,0.785,9.424,2.223,11.564,5.367
	c1.09,1.6,0.412,3.214-1.289,4.764c-1.008,0.92-2.371,1.817-3.961,2.674c-4.846,2.613-11.688,4.852-16.311,6.247
	c0.17,1.845,0.229,4.03-0.027,6.291c-0.457,4.03-1.59,8.42-2.277,10.85c4.08-1.87,7.244,7.926,7.367,10.891
	c0.314,7.574-3.074,13.08-10.604,13.041c-1.309,5.467-3.318,10.665-6.377,15.378c-3.74,5.771-8.684,10.331-14.363,13.096
	c10.07,1.223,15.889,9.808,19.82,19.882c30.584-5.354,55.434,21.712,68.102,46.55c3.129,6.136,5.734,12.559,8.119,19.09
	c5.016-0.979,11.768-2.396,14.922,2.09c2.506,3.563,3.865,7.693,5.295,11.771c0.922,2.639,2.289,5.103,3.063,7.801
	c0.799,2.792,0.453,6.12-2.586,5.688C457.247,411.325,462.149,426.916,452.021,429.926z M359.946,241.209
	c-0.072,6.482-0.52,12.945-1.789,19.104c5.709,0.094,7.484-4.662,7.268-9.906c-0.061-1.458-3.033-10.785-3.838-9.755
	C361.259,241.07,360.55,241.253,359.946,241.209z M364.726,201.205c1.125,0.115,2.4,0.23,3.758,0.37
	c0.086-1.873-0.455-4.332-2.504-4.831c-0.041-0.01-0.064-0.015-0.1-0.023c-0.264,0.238-0.486,0.537-0.637,0.849
	C364.696,198.72,364.632,199.96,364.726,201.205z M325.911,156.21c-0.234-0.063-0.463-0.133-0.697-0.194
	c-0.275-0.071-0.104-0.257,0.256-0.455c-1.934-2.803-4.289-5.264-7.24-7.106c-0.27-0.168-0.316-0.361-0.23-0.549
	c-0.211,0.049-0.396,0.072-0.527,0.052c-6.574-0.997-11.127,1.614-15.58,5.683c1.232-0.148,2.477-0.272,3.727-0.364
	c0.67-0.337,1.633-0.481,2.055-0.131c0.76-0.039,1.521-0.069,2.287-0.089c1.941-0.053-0.252,1.4-1.186,1.427
	c2.061,2.863,3.238,6.606,4.313,9.823c1.988,5.958,3.598,12.068,4.734,18.246c0.66,3.583,3.629,14.352-0.029,17.947
	c1.717-0.082,3.436-0.154,5.156-0.217c0.285-3.537,2.004-8.095,6.088-8.543c4.225-0.464,4.928,4.169,4.811,7.382
	c-0.014,0.372-0.369,0.679-0.824,0.871c1.127-0.024,2.256-0.042,3.385-0.056c-0.371-9.173-1.402-18.459-3.801-27.333
	C331.108,167.063,329.138,161.147,325.911,156.21z M330.933,199.432c0.057-1.518,0.063-3.502-0.818-4.837
	c-0.266-0.404-0.855-1.243-1.426-1.049c-2.176,0.74-2.717,4.74-2.844,6.574c-0.002,0.021-0.012,0.042-0.016,0.063
	c1.514-0.048,3.027-0.092,4.545-0.133c0.293-0.008,0.586-0.012,0.879-0.02C331.05,199.905,330.921,199.713,330.933,199.432z
	 M284.611,159.599c-4.37,2.094-8.362,4.951-11.7,8.804c-7.187,8.295-10.453,18.667-14.246,28.758
	c4.631-0.104,3.185,10.242,4.172,13.228c0.03,0.092-0.003,0.188-0.076,0.282c16.716-6.722,34.253-9.034,52.125-10.021
	c0.279-0.304,0.717-0.585,1.199-0.68c-1.068,0.21-0.268-0.083-0.07-0.986c0.154-0.71,0.266-1.425,0.297-2.152
	c0.088-1.954-0.02-3.912-0.236-5.854c-0.52-4.669-1.381-9.302-2.479-13.868c-1.67-6.954-3.354-16.833-8.279-22.454
	c-1.678,0.112-3.354,0.278-5.021,0.502c-0.025,0.026-0.053,0.05-0.078,0.076c-0.471,0.463-2.528,0.724-2.753,0.368
	c-0.026,0.005-0.056,0.009-0.083,0.015C292.945,156.413,288.618,157.68,284.611,159.599z M255.836,213.737
	c1.688-0.821,3.388-1.588,5.095-2.311c-0.489,0.058-0.906-0.002-0.992-0.262c-0.756-2.286-0.531-4.917-0.777-7.29
	c-0.127-1.208-0.227-2.489-0.627-3.646c-0.146-0.428-0.32-1.02-0.646-1.377c0,0.003,0,0.004-0.003,0.007
	C255.622,203.204,255.833,208.932,255.836,213.737z M259.497,227.452c-0.18-1.032-0.354-2.065-0.526-3.098
	c-0.039,0.028-0.082,0.053-0.121,0.081c-1.152,0.836-3.517-0.161-1.92-1.316c12.432-9.012,30.534-10.579,45.396-11.3
	c17.969-0.872,37.063-3.89,54.527,1.836c0.801-0.46,2.48-0.62,2.482-0.267c0.002,0.493,0.008,0.992,0.014,1.49
	c0,0.075,0,0.15,0.002,0.227c0.002,0.147,0.004,0.298,0.006,0.447l3.029,0.565c0,0,0.332,1.207,0.617,3.095
	c0.01,0.072,0.021,0.143,0.031,0.215c0.35-0.109,0.699-0.221,1.049-0.332c3.006-0.953,5.996-1.959,8.91-3.167
	c2.248-0.932,13.363-5.35,7.637-8.619c-6.85-3.91-16.15-4.365-23.834-4.907c-8.197-0.578-16.43-0.763-24.645-0.58
	c-20.598,0.458-41.702,0.876-61.396,7.633c-8.438,2.896-17.867,6.573-24.895,12.268c-1.517,1.228-4.98,5.345-0.849,6.283
	c1.836,0.416,3.732,0.43,5.605,0.298c2.662-0.187,5.303-0.509,7.938-0.938C259.015,227.29,259.315,227.337,259.497,227.452z
	 M287.336,291.888c0.099,0.313-0.084,0.602-0.394,0.829c2.119,8.22,4.585,16.349,7.176,24.444c0.612-0.192,1.292-0.233,1.616,0.052
	c9.907,8.74,24.54,15.069,35.495,4.336c0.359-0.354,1.363-0.536,2.018-0.439c-1.211-9.354-1.615-18.752-1.32-28.401
	c-5.221,1.455-10.895,1.457-16.73-0.374c-0.842-0.265,1.729-1.321,2.383-1.115c5.242,1.645,10.172,1.548,14.633,0.188
	c0.395-0.358,1.313-0.771,1.785-0.78c0.131-0.003,0.252,0.01,0.383,0.01c9.307-3.827,16.254-13.261,19.121-23.662
	c4.564-16.548,3.117-33.948,2.955-50.923c-3.1-1.096-6.25-1.904-9.439-2.469c-9.197-1.629-18.707-1.333-28.146-0.727
	c-5.275,0.339-10.527,0.772-15.688,1.022c-0.646,0.031-1.305,0.065-1.963,0.099c-2.393,0.122-4.859,0.267-7.371,0.458
	c-0.001,0.113-0.008,0.225-0.01,0.338c-0.244,13.189-4.157,24.563-13.736,33.934c-0.063,0.063-0.138,0.116-0.217,0.165
	c0.468,0.276,0.928,0.576,1.37,0.926c0.341,0.269-2.146,1.424-2.737,0.956c-1.656-1.309-3.897-2.694-5.984-2.451
	c-0.463,0.145-0.881,0.266-1.266,0.371c-0.32,0.16-0.634,0.365-0.935,0.635c-1.914,1.713-3.18,4.253-3.446,6.811
	c-0.686,6.556,4.007,10.049,10.014,9.727c0.196-0.783,2.448-1.392,2.936-0.458C284.159,273.659,284.586,283.091,287.336,291.888z
	 M300.478,346.727c-5.734-18.493-12.364-36.77-17.039-55.563c-0.003-0.01-0.001-0.02-0.003-0.03
	c-0.507,0.257-1.106,0.443-1.444,0.391c-15.74-2.399-10.975,36.619-9.84,49.426c3.287-3.803,7.029-8.43,12.188-7.768
	C291.947,334.163,295.5,341.51,300.478,346.727z M334.657,330.075c-0.453-2.432-0.838-4.86-1.178-7.292
	c-0.029-0.211-0.061-0.423-0.09-0.634c-0.492,0.477-0.994,0.918-1.504,1.339c-11.346,9.396-26.029,5.108-36.857-3.489
	c1.014,3.138,2.037,6.272,3.063,9.406c0.285,0.024,0.523,0.117,0.642,0.303c6.699,10.548,32.787,17.72,35.705,0.749
	C334.462,330.319,334.542,330.191,334.657,330.075z M353.442,311.26c-3.447-8.39-8.84-18.229-18.617-19.25
	c-0.451,14.827,0.715,29.082,4,43.48c0.561,2.458,1.135,4.913,1.707,7.368c3.604-5.396,7.678-10.699,14.297-12.193
	c1.605-0.363,3.232-0.388,4.701-0.087C357.712,324.071,356.017,317.525,353.442,311.26z M451.714,429.072
	c7.996-1.889,0.703-21.322-1.275-25.407c-0.107-0.224,0.441-0.563,1.096-0.788c-5.365-2.979-6.627-12.521-8.096-17.712
	c-0.211-0.747,2.682-1.54,2.898-0.776c1.363,4.814,2.447,10.273,5.066,14.596c0.799,1.319,2.779,2.158,2.539,3.574
	c0.129-0.746,0.041-1.501-0.137-2.23c-0.471-1.946-1.139-3.842-1.947-5.673c-1.969-4.449-3.049-9.415-5.596-13.592
	c-2.174-3.568-4.225-4.577-8.43-4.188c-1.482,0.138-2.951,0.338-4.418,0.564c3.514,9.75,6.564,19.721,10.115,29.332
	C446.274,414.193,449.04,421.616,451.714,429.072z M407.337,405.388c0.242,0.789-0.857,1.396-1.781,1.403
	c1.551,13.116,3.918,28.202-9.227,36.069c-1.109,0.663-3.564-0.16-1.881-1.168c12.768-7.643,9.465-23.11,8.041-35.583
	c-5.174,1.148-9.248,6.547-10.709,11.36c-0.377,1.243-3.01,1.259-2.828-0.167c-6.1-7.014-11.109-12.833-21.277-10.959
	c-1.51,0.277-2.182-1.15-1.293-1.833c-1.475-3.749-1.908-7.843-1.943-11.846c-0.008-1.072,2.891-1.607,2.898-0.776
	c0,0.118,0.006,0.237,0.008,0.356c11.664,0.113,23.596,1.332,35.104-0.965c-0.004-0.038-0.006-0.077-0.01-0.115
	c-0.123-1.319,2.783-2.005,2.898-0.776c0.012,0.131,0.021,0.261,0.033,0.391c1.033,0.172,1.234,1.327,0.15,1.825
	C405.847,396.908,406.062,401.238,407.337,405.388z M403.813,403.697c-0.732-3.411-0.932-6.912-1.197-10.397
	c-11.566,2.26-23.477,1.161-35.199,1.032c0.18,3.252,0.699,6.505,1.91,9.529c4.01-0.514,8.107-0.331,11.686,1.835
	c3.609,2.185,6.385,5.384,9.105,8.57C392.72,408.94,397.917,404.121,403.813,403.697z M382.583,439.231
	c-11.842-3.328-10.828-23.323-12.246-32.843c-0.08-0.542-3.002,0.073-2.898,0.776c1.484,9.954,0.402,29.688,12.756,33.158
	C380.843,440.505,383.384,439.455,382.583,439.231z M288.127,403.917c6.539,7.727,15.633,22.304,4.244,26.128
	c-12.94,4.347-18.156-11.335-22.904-20.899c-1.065,3.261-1.477,7.118-3.657,9.754c-0.948,4.919-4.59,7.859-9.496,9.195
	c-7.328,10.686-14.172,21.674-20.193,33.158c-0.432,0.823-3.332,1.169-2.695-0.047c5.896-11.245,12.579-22.016,19.733-32.49
	c-12.537,1.623-30.358-5.114-35.151-15.467c-8.504,6.439-15.438,14.655-23.375,21.757c-6.623,5.927-15.397,10.234-18.868,18.899
	c-0.439,1.101-3.349,1.238-2.75-0.255c3.688-9.21,13.146-13.934,20.178-20.246c8.138-7.309,15.172-15.75,24.057-22.196
	c-1.301-4.619,0.009-9.843,5.347-15.3c2.021-6.899,6.817-13.042,11.352-18.464c3.97-4.749,8.151-10.001,13.719-12.963
	c-0.84-1.143-1.492-3.071-1.912-3.909c-2.045-4.08-4.004-8.203-5.969-12.322c-3.51-7.359-6.758-15.036-10.802-22.155
	c-3.101,0.563-6.21,1.063-9.322,1.55c-0.637,0.248-1.549,0.368-1.978,0.31c-5.549,0.866-11.092,1.762-16.567,3.016
	c-2.743,1.121-6.103,1.068-9.495,0.257c-0.945,5.233-3.213,9.912-5.522,14.7c-2.316,4.805-4.087,9.707-5.689,14.789
	c-3.547,11.23-6.606,22.603-9.783,33.939c-3.194,11.401-6.43,22.877-8.231,34.6c-1.551,10.08-3.592,21.996,0.789,31.635
	c0.303,0.667-2.517,1.617-2.898,0.776c-4.354-9.584-2.43-21.921-0.766-31.964c1.942-11.719,5.022-23.174,8.231-34.601
	c3.183-11.333,6.181-22.729,9.783-33.938c1.814-5.647,3.861-10.996,6.443-16.336c2.237-4.629,4.266-9.194,4.977-14.326
	c0.003-0.02,0.016-0.038,0.021-0.058c-5.499-1.928-10.686-5.6-13.032-9.278c-3.408-5.344-1.684-14.866-0.117-20.542
	c0.934-3.375,2.244-7.188,4.894-9.348c-0.392-0.291-0.374-0.754,0.59-1.136c0.536-0.212,1.078-0.414,1.616-0.623
	c-1.659,0.009-0.62-1.371,0.685-1.472c1.115-0.086,2.212-0.1,3.29-0.056c12.447-4.661,25.23-8.556,38.181-11.492
	c9.406-2.133,19.57-3.866,28.939-0.674c10.072,3.432,16.586,15.318,14.873,25.743c-1.989,12.104-12.879,17.479-23.512,20.874
	c8.791,13.755,15.506,28.7,21.761,43.763c14.579-2.155,31.839,16.979,27.402,31.313
	C293.588,400.583,291.174,403.118,288.127,403.917z M263.804,367.1c0.139-0.056,0.276-0.112,0.416-0.165
	c-0.068-0.167-0.139-0.335-0.207-0.502C263.951,366.655,263.882,366.877,263.804,367.1z M206.827,324.062
	c-0.651,2.431-1.803,4.197-3.281,5.436c4.61-0.966,9.259-1.721,13.91-2.456c0.383-10.75,9.817-17.365,19.719-19.237
	c3.179-0.602,8.375-1.144,11.183,0.999c3.065,2.342,3.05,6.214,2.646,9.763c9.575-4.41,17.376-11.867,14.698-23.903
	c-2.17-9.745-8.607-17.232-18.834-18.539c-9.098-1.162-18.27,1.036-27.029,3.3c-9.904,2.561-19.682,5.496-29.294,8.953
	c15.409,2.737,25.307,18.559,17.288,34.201c-0.441,0.862-3.264,1.14-2.887,0.401c7.609-14.845-1.641-31.977-17.607-33.433
	c-0.694,0.26-1.388,0.53-2.082,0.796c-0.438,0.316-1.067,0.615-1.459,0.647c-0.181,0.015-0.354,0.06-0.525,0.117
	c-0.076,0.03-0.152,0.059-0.229,0.088c-3.281,1.497-4.823,10.603-5.212,13.099c-0.699,4.482-1.502,10.168,0.232,14.547
	c1.698,4.286,6.862,7.544,10.881,9.317c5.729,2.527,12.967,3.943,15.006-3.666C204.179,323.632,207.06,323.195,206.827,324.062z
	 M228.479,325.234c-0.208-0.358-0.413-0.718-0.626-1.072c-0.676-0.027-1.184-0.331-0.834-0.992c2.756-5.229,8.752-9.625,13.813-5.79
	c0.566-0.122,1.145-0.061,1.394,0.3c0.771,1.116,1.521,2.244,2.263,3.378c1.187-0.375,2.375-0.789,3.552-1.243
	c0.601-5.458-0.126-11.267-7.072-11.312c-10.572-0.069-20.406,7.142-20.62,18.081C223.062,326.154,225.774,325.712,228.479,325.234z
	 M250.257,363.244c3.59-1.553,7.805-2.76,11.526-1.635c0.09,0.026,0.157,0.066,0.241,0.097
	c-6.109-14.379-12.819-28.528-21.577-41.499c-0.364-0.001-0.693-0.096-0.896-0.321c-3.607-4.045-7.141-0.982-9.296,2.62
	c0.437,0.717,0.856,1.444,1.273,2.175c1.321-0.234,1.048,0.265,0.378,0.665c3.475,6.21,6.337,12.835,9.389,19.229
	c2.104,4.409,4.188,8.828,6.351,13.209C248.156,358.813,249.256,361.955,250.257,363.244z M284.833,404.116
	c-5.357-0.48-10.717-3.282-14.034,2.071c0.256,0,0.456,0.057,0.537,0.201c2.521,4.562,4.334,9.484,7.035,13.953
	c2.059,3.409,10.912,15.362,15.416,7.134c1.701-3.106,1.211-6.884-0.353-10.657c-0.59,0.336-1.321,0.516-1.995,0.521
	c-1.882,0.021-3.671,0.188-5.246,1.309c-0.562,0.398-1.263,0.609-1.943,0.678c-0.178,0.018-1.225-0.024-0.67-0.419
	c2.826-2.006,6.19-2.635,9.598-2.688C291.202,411.763,287.813,407.362,284.833,404.116z M286.554,402.129
	c2.007-0.063,3.75-0.925,4.844-3.747c4.615-11.912-10.716-32.079-23.579-30.539c0.006,0.016,0.013,0.03,0.019,0.045
	c0.438,1.061-2.428,1.917-2.897,0.776c-0.01-0.022-0.02-0.045-0.028-0.068c-0.851,0.349-1.682,0.807-2.484,1.392
	c-0.419,0.72-0.84,1.362-1.179,1.857c-0.521,0.769-2.963,0.989-2.842,0.16c-0.503-0.149-0.74-0.5-0.203-1.059
	c0.545-0.567,1.107-1.074,1.684-1.536c1.691-3.357,2.314-7.21-3.276-6.321c-1.906,0.303-3.828,0.874-5.654,1.667
	c-0.026,0.029-0.043,0.064-0.074,0.09c-0.38,0.315-0.836,0.511-1.308,0.565c-1.735,0.896-3.354,2.003-4.726,3.329
	c-7.361,7.126-16.094,16.313-19.206,26.408c0.262,0.334,0.259,0.809-0.282,1.323c-5.311,5.063-6.596,9.896-5.346,14.151
	c0.313,0.188,0.461,0.468,0.264,0.801c3.946,10.554,23.454,17.287,34.717,14.623c0.185-0.265,0.363-0.531,0.547-0.795
	c0.438-0.627,2.481-0.919,2.779-0.405c1.698-0.878,3.03-2.095,3.842-3.689c-2.615,0.515-5.558-0.568-7.907-1.615
	c-1.33-0.593,1.28-1.975,2.271-1.533c2.349,1.046,5.049,1.827,6.762,0.231c0.017-0.016,0.032-0.026,0.049-0.041
	c0.406-0.395,0.758-0.923,1.029-1.624c0.693-1.78,1.086-3.638,1.627-5.465c0.89-3.013,2.199-6.277,4.813-8.227
	c2.529-1.884,5.235-2.377,8.332-1.979c1.034,0.132,2.108,0.387,3.18,0.631c-0.1-0.095-0.2-0.193-0.297-0.284
	c-0.354-0.334,2.217-1.443,2.74-0.953C285.279,400.79,285.888,401.408,286.554,402.129z M208.659,158.785
	c0.738,0.779,3.498-0.304,2.684-1.162c-2.188-2.311-4.592-4.369-7.188-6.209c-0.822-0.584-3.486,0.609-2.291,1.456
	C204.325,154.614,206.584,156.597,208.659,158.785z M222.616,189.331c0.268-3.977,0.043-7.902-0.736-11.814
	c-0.194-0.981-3.104-0.263-2.897,0.776c0.754,3.782,0.998,7.561,0.74,11.409C219.644,190.87,222.554,190.285,222.616,189.331z
	 M180.679,226.674c-4.492,0.369-8.945,0.244-13.416-0.328c-1.404-0.18-2.968,1.826-1.013,2.076c4.715,0.604,9.427,0.729,14.162,0.34
	C182.028,228.629,182.659,226.511,180.679,226.674z M137.616,211.945c-0.75-0.878-3.523,0.209-2.672,1.203
	c2.59,3.025,5.616,5.579,8.979,7.707c0.935,0.591,3.56-0.719,2.271-1.534C142.969,217.28,140.099,214.844,137.616,211.945z
	 M145.982,151.375c-4.545,2.689-8.594,6.052-11.898,10.182c-1.135,1.417,1.633,1.702,2.396,0.749
	c3.176-3.968,7.022-7.153,11.389-9.737C149.558,151.57,147.107,150.71,145.982,151.375z M166.042,146.055
	c3.672-0.723,7.375-1.198,11.103-1.522c0.037-0.003,0.072-0.013,0.11-0.018c0.998,0.047,1.994,0.114,2.99,0.22
	c0.695,0.073,1.496-0.11,2.049-0.55c0.447-0.354,0.361-0.82-0.235-0.884c-1.144-0.122-2.289-0.197-3.437-0.251
	c-0.098-0.315-0.457-0.538-1.178-0.476c-3.994,0.348-7.955,0.89-11.89,1.664C163.737,144.596,164.265,146.405,166.042,146.055z
	 M177.202,167.657c0.432-0.044,0.728,0.017,0.92,0.135c9.278,0.739,18.003,7.084,18.558,17.04
	c0.553,9.941-6.263,16.94-15.685,18.897c-12.391,2.574-25.414-3.399-26.029-17.038C154.4,174.172,166.59,168.741,177.202,167.657z
	 M158.168,189.187c2.353,11.376,15.701,16.115,26.002,11.788c7.299-3.067,11.313-10.79,9.068-18.54
	c-2.283-7.881-8.927-12.446-16.995-12.797C165.781,170.913,155.698,177.225,158.168,189.187z M161.786,239.547
	c0,0.188,0.073,0.329,0.188,0.437c0.023,0.195,0.254,0.335,0.817,0.335c7.938,0,15.875,0,23.813,0
	c0.771,0.12,1.837-0.253,2.053-0.866c0.235-0.266,0.3-0.523,0.042-0.668c0-3.974,0-7.948,0-11.923c0-0.022-0.007-0.04-0.009-0.062
	c2.247-0.563,4.449-1.256,6.62-2.072c3.461,3.235,7.276,6.065,10.727,9.314c0.355,0.335,1.119,0.283,1.766,0.055
	c0.381-0.083,0.729-0.223,0.906-0.409c5.557-5.813,11.115-11.624,16.674-17.438c0.516-0.539,0.253-0.822-0.256-0.913
	c-2.736-2.616-5.473-5.232-8.209-7.85c1.613-2.784,2.898-5.713,3.877-8.776c3.58,0,7.16,0,10.742,0
	c0.701,0.748,2.697,0.279,2.697-0.844c0-8.042,0-16.084,0-24.126c0-1.118-1.492-1.229-2.352-0.71c-3.753,0-7.506,0-11.261,0
	c-0.923-2.667-2.097-5.218-3.506-7.665c2.721-2.601,5.439-5.202,8.16-7.803c0.453-0.313,0.671-0.75,0.272-1.166
	c-5.559-5.813-11.115-11.625-16.674-17.438c-0.771-0.806-2.93-0.038-2.859,0.85c-2.765,2.643-5.526,5.285-8.289,7.928
	c-3.057-1.446-6.225-2.569-9.51-3.379c0-3.815,0-7.63,0-11.446c0-0.091-0.013-0.174-0.035-0.25c0.231-0.18,0.24-0.317-0.205-0.327
	c-0.444-0.418-1.414-0.357-2.06-0.002c-7.307,0-14.614,0-21.923,0c-0.68-0.763-2.715-0.288-2.715,0.818c0,4.121,0,8.243,0,12.365
	c0,0.096,0.012,0.184,0.033,0.265c-3.244,0.867-6.424,1.922-9.529,3.215c-1.754,0.731,1.008,0.565,1.647,0.298
	c2.806-1.167,5.684-2.092,8.618-2.855c0.87,0.228,2.167-0.251,2.167-1.134c0-3.93,0-7.86,0-11.791c7.025,0,14.051,0,21.076,0
	c0,3.728,0,7.456,0,11.183c-0.454,0.324-0.622,0.688,0.004,0.875c0.027,0.955,1.382,1.02,2.237,0.586
	c3.223,0.886,6.323,2.084,9.314,3.619c0.431,0.221,1.401-0.019,2.028-0.379c0.381-0.099,0.737-0.301,1.024-0.574
	c2.53-2.421,5.062-4.841,7.594-7.262c5.037,5.267,10.072,10.534,15.109,15.802c-2.409,2.305-4.819,4.609-7.229,6.914
	c-0.802,0.153-1.603,0.72-1.423,1.386c-0.323,0.417-0.069,0.658,0.393,0.752c1.535,2.648,2.776,5.417,3.711,8.337
	c0.236,0.739,1.357,0.748,2.145,0.381c3.696,0,7.395,0,11.091,0c0,7.443,0,14.887,0,22.33c-3.361,0-6.723,0-10.084,0
	c-0.007,0-0.014,0.001-0.021,0.001c0.223-1.129-2.606-0.739-2.926,0.356c-0.93,3.194-2.23,6.212-3.863,9.092
	c-0.69,0.291-1.166,0.803-0.711,1.253c-0.004,0.006-0.007,0.011-0.01,0.017c-0.416,0.68,0.22,0.955,0.992,0.927
	c2.574,2.462,5.147,4.924,7.725,7.386c-4.918,5.142-9.834,10.285-14.751,15.427c-3.214-2.899-6.662-5.531-9.815-8.5
	c-0.011-0.071-0.077-0.133-0.245-0.169c-0.009-0.002-0.017,0-0.023-0.002c-0.619-0.255-1.732,0.047-2.28,0.486
	c-2.39,0.976-4.846,1.742-7.354,2.326c-0.63-0.117-1.478,0.107-1.892,0.534c-0.763,0.378-1.273,0.958-0.252,0.847
	c0,3.74,0,7.479,0,11.22c-7.031,0-14.063,0-21.095,0c0-3.851,0-7.701,0-11.551c0.579-0.349,0.862-0.766,0.046-0.921
	c-3.404-0.646-6.73-1.543-9.998-2.694c-0.713-0.25-2.875,0.679-2.559,1.158c-0.447,0.109-0.889,0.29-1.212,0.583
	c-2.521,2.299-5.118,4.514-7.638,6.813c-5.146-5.379-10.288-10.759-15.434-16.139c1.881-1.799,3.764-3.598,5.646-5.396
	c1.022,0.039,2.332-0.782,1.75-1.693c0.206-0.256-0.017-0.404-0.294-0.475c-2.148-3.406-3.712-7.055-4.792-10.94
	c-0.323-1.159-2.601-0.693-2.896,0.328c-3.275,0-6.553,0-9.827,0c0-7.475,0-14.951,0-22.426c3.269,0,6.536,0,9.807,0
	c-0.172,0.957,2.63,0.534,2.902-0.421c0.994-3.508,2.435-6.802,4.34-9.9c0.592-0.314,0.934-0.809,0.463-1.26
	c-2.448-2.341-4.896-4.684-7.344-7.022c4.913-5.139,9.825-10.277,14.739-15.416c2.65,2.534,5.3,5.067,7.949,7.601
	c0.551,0.527,3.18-0.558,2.729-0.987c-2.963-2.833-5.925-5.667-8.889-8.5c0.337-0.491-2.201-0.123-2.637,0.332
	c-5.33,5.576-10.662,11.151-15.994,16.727c-0.73,0.297-1.232,0.863-0.701,1.372c2.384,2.277,4.764,4.555,7.146,6.832
	c-1.806,2.876-3.202,5.938-4.239,9.158c-3.454,0-6.908,0-10.362,0c-0.474-0.974-2.839-0.471-2.839,0.628c0,8.042,0,16.084,0,24.126
	c0,0.239,0.084,0.422,0.217,0.562c0.038,0.089,0.136,0.16,0.297,0.208c0.337,0.149,0.787,0.162,1.212,0.061
	c3.797,0,7.596,0,11.394,0c1.085,3.518,2.582,6.853,4.529,9.98c-2.242,2.145-4.485,4.288-6.729,6.434
	c-0.494,0.234-0.834,0.512-0.668,0.687c5.558,5.813,11.115,11.624,16.674,17.437c0.125,0.13,0.388,0.161,0.7,0.126
	c0.086,0.006,0.165,0.008,0.218,0.004c0.646-0.044,1.451-0.244,1.937-0.704c2.975-2.819,6.115-5.453,9.146-8.209
	c2.728,0.912,5.496,1.657,8.312,2.237C161.786,231.45,161.786,235.498,161.786,239.547z M456.581,233.316
	c-0.822-0.583-3.486,0.609-2.291,1.456c1.955,1.388,3.752,2.967,5.4,4.708c0.736,0.779,3.498-0.304,2.684-1.163
	C460.61,236.455,458.673,234.799,456.581,233.316z M467.937,255.064c0.6,3.016,0.799,6.027,0.592,9.097
	c-0.08,1.167,2.83,0.583,2.895-0.371c0.219-3.198,0.037-6.354-0.588-9.502C470.64,253.306,467.731,254.025,467.937,255.064z
	 M410.163,287.69c-2.57-1.625-4.855-3.563-6.83-5.875c-0.75-0.878-3.523,0.209-2.672,1.204c2.084,2.436,4.521,4.493,7.229,6.205
	C408.825,289.814,411.45,288.504,410.163,287.69z M450.675,260.467c0.688,8.136-5.842,13.723-13.248,15.139
	c-9.492,1.814-20.32-2.68-20.738-13.411c-0.408-10.448,9.037-14.942,18.109-15.915c0.418-0.045,0.707,0.009,0.9,0.119
	C443.532,247.078,449.981,252.266,450.675,260.467z M447.228,258.042c-1.955-6.058-7.008-9.466-13.279-9.792
	c-8.352,1.073-16.436,6.292-14.047,15.853c2.18,8.722,12.752,12.42,20.732,8.732C446.243,270.243,449.157,264.024,447.228,258.042z
	 M480.731,251.322c0,6.44,0,12.881,0,19.321c0,1.135-2.035,1.599-2.717,0.819c-2.699,0-5.398,0-8.098,0
	c-0.771,2.383-1.773,4.664-3.023,6.836c2.176,2.081,4.352,4.161,6.525,6.241c0.416,0.103,0.607,0.358,0.23,0.806
	c-0.023,0.028-0.039,0.054-0.068,0.084c-0.045,0.047-0.09,0.094-0.135,0.14c-4.406,4.609-8.813,9.217-13.219,13.825
	c-0.168,0.175-0.482,0.31-0.838,0.395c-0.652,0.239-1.438,0.3-1.801-0.041c-2.74-2.579-5.768-4.833-8.52-7.398
	c-1.58,0.581-3.18,1.085-4.809,1.504c0,3.153,0,6.306,0,9.459c0.186,0.132,0.146,0.339-0.018,0.559
	c-0.129,0.716-1.402,1.156-2.221,0.951c-6.303,0-12.604,0-18.908,0c-0.559,0-0.787-0.138-0.816-0.329
	c-0.104-0.105-0.168-0.24-0.168-0.418c0-3.213,0-6.428,0-9.642c-2.15-0.448-4.27-1.016-6.357-1.703
	c-2.348,2.125-4.771,4.166-7.068,6.346c-0.484,0.46-1.289,0.66-1.938,0.704c-0.045,0.003-0.113,0.002-0.188-0.002
	c-0.313,0.034-0.572,0.003-0.695-0.127c-4.451-4.656-8.902-9.311-13.354-13.964c-0.15-0.157,0.109-0.398,0.523-0.616
	c1.791-1.713,3.582-3.425,5.373-5.137c-1.527-2.469-2.707-5.102-3.568-7.871c-2.918,0-5.834,0-8.75,0
	c-0.484,0.132-1.018,0.122-1.379-0.079c-0.127-0.048-0.203-0.114-0.236-0.194c-0.117-0.136-0.191-0.31-0.191-0.534
	c0-6.44,0-12.881,0-19.321c0-1.081,2.291-1.586,2.816-0.676c2.605,0,5.213,0,7.818,0c0.818-2.496,1.91-4.873,3.307-7.109
	c-1.889-1.807-3.779-3.615-5.67-5.422c-0.545-0.521-0.006-1.101,0.752-1.391c4.209-4.4,8.414-8.8,12.623-13.2
	c0.23-0.241,1.057-0.458,1.729-0.535c0.168-0.027,0.322-0.038,0.461-0.03c0.322,0,0.529,0.056,0.475,0.193
	c2.365,2.262,4.73,4.524,7.098,6.786c0.123,0.119,0.008,0.288-0.229,0.459c2.053-0.801,4.143-1.488,6.268-2.066
	c-0.01-0.06-0.021-0.119-0.021-0.186c0-3.301,0-6.602,0-9.902c0-1.117,2.076-1.591,2.732-0.794c5.695,0,11.387,0,17.08,0
	c0.656-0.384,1.686-0.451,2.125,0.007c0.34,0.022,0.352,0.136,0.176,0.287c0.025,0.079,0.039,0.165,0.039,0.261
	c0,3.023,0,6.048,0,9.071c2.508,0.625,4.934,1.474,7.273,2.56c2.129-2.035,4.258-4.071,6.387-6.106
	c0.043-0.856,2.104-1.563,2.855-0.779c4.453,4.654,8.904,9.309,13.354,13.964c0.432,0.451,0.145,0.929-0.389,1.245
	c-2.104,2.011-4.207,4.021-6.311,6.033c1.09,1.906,2.006,3.89,2.73,5.96c2.893,0,5.783,0,8.676,0
	C479.323,250.098,480.731,250.237,480.731,251.322z M470.294,270.215c2.498,0,4.996,0,7.496,0c0-5.85,0-11.699,0-17.549
	c-2.857,0-5.715,0-8.572,0c-0.775,0.31-1.797,0.263-2.021-0.438c-0.729-2.276-1.691-4.438-2.877-6.505
	c-0.438-0.127-0.578-0.452-0.406-0.788c-0.154-0.63,0.563-1.167,1.32-1.347c1.854-1.771,3.705-3.542,5.557-5.314
	c-3.934-4.117-7.869-8.232-11.807-12.347c-1.934,1.848-3.863,3.695-5.797,5.543c-0.336,0.32-0.77,0.536-1.227,0.604
	c-0.598,0.258-1.33,0.394-1.688,0.21c-2.316-1.188-4.713-2.128-7.203-2.829c-0.826,0.354-1.994,0.27-2.098-0.554
	c-0.496-0.179-0.385-0.492-0.016-0.785c0-2.958,0-5.916,0-8.873c-5.432,0-10.863,0-16.293,0c0,2.869,0,5.737,0,8.606
	c0.182-0.135,0.404-0.253,0.729-0.317c3.178-0.625,6.373-1.065,9.6-1.347c0.688-0.061,1.045,0.143,1.162,0.435
	c0.895,0.044,1.791,0.104,2.684,0.2c0.6,0.063,0.686,0.531,0.236,0.884c-0.555,0.439-1.354,0.623-2.049,0.55
	c-0.68-0.072-1.359-0.122-2.039-0.16c-0.096,0.023-0.193,0.041-0.295,0.05c-2.959,0.258-5.898,0.633-8.813,1.206
	c-0.643,0.126-1.113-0.034-1.379-0.301c-0.398,0.591-1.457,0.849-2.145,0.587c-2.199,0.584-4.355,1.282-6.459,2.158
	c-0.602,0.25-1.359,0.507-2.021,0.388c-0.494-0.089-0.131-0.395,0.158-0.571c-0.453,0.098-0.869,0.104-1.053-0.072
	c-2.051-1.96-4.102-3.921-6.152-5.882c-3.813,3.986-7.623,7.974-11.436,11.959c1.471,1.405,2.939,2.811,4.408,4.216
	c0.045-0.102,0.104-0.208,0.197-0.325c2.658-3.322,5.924-6.034,9.58-8.198c0.596-0.353,1.428-0.607,2.07-0.201
	c0.572,0.362,0.318,1.098-0.186,1.396c-3.479,2.059-6.539,4.592-9.068,7.753c-0.318,0.397-0.986,0.577-1.572,0.551
	c0.135,0.13,0.27,0.259,0.406,0.389c0.463,0.441,0.143,0.926-0.428,1.241c-1.486,2.438-2.613,5.028-3.395,7.786
	c-0.264,0.92-2.879,1.348-2.914,0.521c-2.42,0-4.842,0-7.262,0c0,5.882,0,11.764,0,17.646c2.451,0,4.904,0,7.357,0
	c0.469-0.91,2.523-1.271,2.828-0.174c0.865,3.107,2.121,6.02,3.842,8.743c0.229,0.074,0.389,0.206,0.24,0.42
	c0.459,0.851-0.693,1.605-1.672,1.625c-1.412,1.351-2.824,2.701-4.238,4.051c4.043,4.229,8.086,8.456,12.129,12.684
	c1.91-1.73,3.871-3.404,5.773-5.14c0.25-0.227,0.568-0.391,0.904-0.504c-0.037-0.269,0.338-0.607,0.566-0.736
	c0.578-0.325,1.395-0.531,2.043-0.303c2.602,0.915,5.246,1.63,7.955,2.144c0.758,0.145,0.566,0.514,0.072,0.846
	c0,0.106,0,0.212,0,0.317c0.217-0.591,1.07-1.206,1.875-1.103c3.557,0.455,7.096,0.556,10.67,0.262
	c1.98-0.163,1.35,1.955-0.266,2.088c-3.816,0.314-7.617,0.213-11.416-0.272c-0.488-0.063-0.756-0.234-0.863-0.454
	c0,2.762,0,5.523,0,8.284c5.438,0,10.875,0,16.313,0c0-2.907,0-5.815,0-8.723c-0.352,0.003-0.701-0.053-0.566-0.312
	c0.143-0.271,0.479-0.444,0.834-0.564c0.455-0.446,1.389-0.665,2.018-0.483c1.807-0.433,3.572-0.99,5.295-1.684
	c0.547-0.513,1.898-0.877,2.502-0.485c0.033,0.022,0.07,0.042,0.102,0.07c0.008,0.008,0.018,0.016,0.025,0.024
	c2.449,2.306,5.119,4.36,7.629,6.598c3.814-3.99,7.631-7.98,11.445-11.971c-2.021-1.935-4.045-3.869-6.066-5.804
	c-0.682-0.007-1.195-0.273-0.887-0.864c-0.342-0.411,0.043-0.86,0.643-1.143c1.283-2.274,2.309-4.654,3.043-7.174
	C467.667,269.587,470.364,269.189,470.294,270.215z" fill="#000000"></path>
</svg>